<svg xmlns="http://www.w3.org/2000/svg" width="705.06" height="45.469" viewBox="0 0 705.06 45.469">
  <defs>
    <style>
      .cls-1 {
        fill: #fff;
        fill-rule: evenodd;
      }
    </style>
  </defs>
  <path id="Lato_med." data-name="Lato med." class="cls-1" d="M1139.81,778.186v-32.68h-2.53v34.821h19.02v-2.141h-16.49Zm35.95-3.3q-0.855.886-1.74,1.649a10.817,10.817,0,0,1-1.91,1.317,9.763,9.763,0,0,1-2.21.861,10.544,10.544,0,0,1-2.63.308,6.222,6.222,0,0,1-1.84-.271,4.288,4.288,0,0,1-1.56-.849,4.179,4.179,0,0,1-1.09-1.477,5.142,5.142,0,0,1-.4-2.128,3.681,3.681,0,0,1,.79-2.326,6.169,6.169,0,0,1,2.42-1.759,17.366,17.366,0,0,1,4.16-1.169,45.8,45.8,0,0,1,6.01-.554v6.4Zm-13.97-14.863a1.137,1.137,0,0,0,.29.32,0.758,0.758,0,0,0,.45.123,1.559,1.559,0,0,0,.91-0.492,12.584,12.584,0,0,1,1.4-1.083,10.508,10.508,0,0,1,2.1-1.083,8.242,8.242,0,0,1,3.02-.492,5.223,5.223,0,0,1,4.34,1.833,8.181,8.181,0,0,1,1.46,5.23v2.559a42.18,42.18,0,0,0-7.12.689,18.408,18.408,0,0,0-4.86,1.575,7.275,7.275,0,0,0-2.78,2.313,5.1,5.1,0,0,0-.89,2.879,6.752,6.752,0,0,0,.56,2.867,5.534,5.534,0,0,0,1.47,1.956,6.181,6.181,0,0,0,2.11,1.132,8.1,8.1,0,0,0,2.43.37,12.085,12.085,0,0,0,2.76-.3,10.6,10.6,0,0,0,2.34-.836,12.328,12.328,0,0,0,2.08-1.329,26.033,26.033,0,0,0,2-1.772l0.35,3.15a0.841,0.841,0,0,0,.91.689h0.93V764.381a12.949,12.949,0,0,0-.49-3.7,8.007,8.007,0,0,0-1.46-2.83,6.416,6.416,0,0,0-2.45-1.8,8.761,8.761,0,0,0-3.45-.628,11.3,11.3,0,0,0-4.8.984,14.253,14.253,0,0,0-4.03,2.9Zm34.49,20.068a6.766,6.766,0,0,0,2.37-1.661l-0.64-1.034a0.531,0.531,0,0,0-.39-0.246,0.841,0.841,0,0,0-.47.259,7.581,7.581,0,0,1-.76.566,6.592,6.592,0,0,1-1.11.566,4.111,4.111,0,0,1-1.53.258,3.941,3.941,0,0,1-1.33-.221,2.86,2.86,0,0,1-1.07-.689,3.253,3.253,0,0,1-.71-1.194,5.243,5.243,0,0,1-.26-1.735v-16.61h7.73V756.6h-7.73v-9.351h-1.11a0.5,0.5,0,0,0-.41.172,0.856,0.856,0,0,0-.2.394l-0.59,8.761-4.18.295v0.911a0.5,0.5,0,0,0,.17.418,0.643,0.643,0,0,0,.44.148h3.52v16.733a5.758,5.758,0,0,0,1.39,4.258,5.279,5.279,0,0,0,3.88,1.378A7.427,7.427,0,0,0,1196.28,780.093Zm13.06-23.747a9.783,9.783,0,0,0-3.52,2.547,11.167,11.167,0,0,0-2.19,3.974,18.391,18.391,0,0,0,0,10.4,11.172,11.172,0,0,0,2.19,3.962,9.648,9.648,0,0,0,3.52,2.535,12.989,12.989,0,0,0,9.43,0,9.493,9.493,0,0,0,3.5-2.535,11.154,11.154,0,0,0,2.18-3.962,18.391,18.391,0,0,0,0-10.4,11.149,11.149,0,0,0-2.18-3.974,9.625,9.625,0,0,0-3.5-2.547A12.827,12.827,0,0,0,1209.34,756.346Zm0.89,21.705a7.256,7.256,0,0,1-2.73-2.154,9.671,9.671,0,0,1-1.65-3.383,17.85,17.85,0,0,1,0-8.872,9.8,9.8,0,0,1,1.65-3.408,7.317,7.317,0,0,1,2.73-2.178,9.969,9.969,0,0,1,7.65,0,7.317,7.317,0,0,1,2.73,2.178,9.619,9.619,0,0,1,1.64,3.408,18.49,18.49,0,0,1,0,8.872,9.488,9.488,0,0,1-1.64,3.383,7.256,7.256,0,0,1-2.73,2.154A10.129,10.129,0,0,1,1210.23,778.051Zm37.15-33.529v35.8h2.36v-35.8h-2.36Zm11.91,11.319v24.486h2.33V755.841h-2.33Zm3.16-9.289a2.656,2.656,0,0,0-.48-0.7,2.316,2.316,0,0,0-.69-0.467,2.113,2.113,0,0,0-1.67,0,2.188,2.188,0,0,0-1.16,1.169,2.065,2.065,0,0,0-.17.849,1.9,1.9,0,0,0,.17.824,2.136,2.136,0,0,0,.47.677,2.125,2.125,0,0,0,2.36.467,2.28,2.28,0,0,0,.69-0.467,2.8,2.8,0,0,0,.48-0.677,1.905,1.905,0,0,0,.18-0.824A2.075,2.075,0,0,0,1262.45,746.552Zm13.73,22.492a6.039,6.039,0,0,1-2.07-1.267,5.366,5.366,0,0,1-1.29-1.944,6.744,6.744,0,0,1-.44-2.511,6.836,6.836,0,0,1,.44-2.522,5.329,5.329,0,0,1,1.29-1.956,5.879,5.879,0,0,1,2.07-1.255,8.882,8.882,0,0,1,5.54,0,5.748,5.748,0,0,1,2.06,1.255,5.5,5.5,0,0,1,1.31,1.956,6.837,6.837,0,0,1,.45,2.522,6.951,6.951,0,0,1-.44,2.511,5.473,5.473,0,0,1-1.28,1.944,5.855,5.855,0,0,1-2.07,1.267,8.006,8.006,0,0,1-2.8.455A7.834,7.834,0,0,1,1276.18,769.044Zm11.24,15.245a5.971,5.971,0,0,1-1.87,1.821,9.669,9.669,0,0,1-2.8,1.181,13.876,13.876,0,0,1-3.48.418,14.556,14.556,0,0,1-3.57-.393,9.073,9.073,0,0,1-2.62-1.071,4.857,4.857,0,0,1-1.63-1.6,3.819,3.819,0,0,1-.55-2.006,3.887,3.887,0,0,1,.32-1.563,4.777,4.777,0,0,1,.89-1.341,5.928,5.928,0,0,1,1.35-1.1,11.1,11.1,0,0,1,1.72-.849,22.8,22.8,0,0,0,2.73.295l2.89,0.148q1.44,0.073,2.76.234a9.668,9.668,0,0,1,2.33.554,3.976,3.976,0,0,1,1.61,1.1,2.757,2.757,0,0,1,.6,1.858A4.143,4.143,0,0,1,1287.42,784.289Zm-3.03-27.365a9.029,9.029,0,0,0-2.45-1.107,11.576,11.576,0,0,0-6.57.172,8.112,8.112,0,0,0-2.77,1.6,7.1,7.1,0,0,0-1.79,2.473,8.1,8.1,0,0,0-.62,3.211,7.629,7.629,0,0,0,.97,3.913,7.266,7.266,0,0,0,2.72,2.682,7.337,7.337,0,0,0-1.28.886,5.837,5.837,0,0,0-.96,1.046,4.516,4.516,0,0,0-.59,1.12,3.331,3.331,0,0,0-.2,1.082,3.056,3.056,0,0,0,.75,2.178,4.733,4.733,0,0,0,1.98,1.218,8.548,8.548,0,0,0-3.49,2.178,4.724,4.724,0,0,0-1.28,3.335,5.069,5.069,0,0,0,.66,2.51,6.405,6.405,0,0,0,1.98,2.079,10.868,10.868,0,0,0,3.26,1.428,17.415,17.415,0,0,0,4.53.529,15.012,15.012,0,0,0,4.58-.653,11.636,11.636,0,0,0,3.48-1.734,7.657,7.657,0,0,0,2.2-2.486,6.039,6.039,0,0,0,.77-2.928,4.293,4.293,0,0,0-.75-2.646,5.023,5.023,0,0,0-1.97-1.55,10.107,10.107,0,0,0-2.78-.775c-1.05-.148-2.11-0.25-3.19-0.308s-2.15-.111-3.19-0.16a17.459,17.459,0,0,1-2.78-.332,4.956,4.956,0,0,1-1.97-.824,1.913,1.913,0,0,1-.75-1.624,2.6,2.6,0,0,1,.61-1.588,5.249,5.249,0,0,1,1.63-1.39,10.888,10.888,0,0,0,3.82.64,10.65,10.65,0,0,0,3.55-.566,8.061,8.061,0,0,0,2.76-1.588,7.057,7.057,0,0,0,1.77-2.46,7.932,7.932,0,0,0,.63-3.212,8.1,8.1,0,0,0-.37-2.51,7.271,7.271,0,0,0-1.06-2.092l3.74-.27a0.681,0.681,0,0,0,.69-0.665v-0.812h-6.27Zm15.03-12.4h-2.36v35.8h2.36V761.92a12.644,12.644,0,0,1,3.7-3.384,8.715,8.715,0,0,1,4.47-1.218,5.794,5.794,0,0,1,4.8,1.956,8.39,8.39,0,0,1,1.57,5.4v15.651h2.37V764.676a13.327,13.327,0,0,0-.52-3.839,7.994,7.994,0,0,0-1.53-2.9,6.527,6.527,0,0,0-2.54-1.845,9.212,9.212,0,0,0-3.56-.64,9.747,9.747,0,0,0-4.88,1.23,13.662,13.662,0,0,0-3.88,3.3V744.522Zm35.06,35.571a6.766,6.766,0,0,0,2.37-1.661l-0.64-1.034a0.531,0.531,0,0,0-.39-0.246,0.841,0.841,0,0,0-.47.259,7.581,7.581,0,0,1-.76.566,6.592,6.592,0,0,1-1.11.566,4.111,4.111,0,0,1-1.53.258,3.941,3.941,0,0,1-1.33-.221,2.86,2.86,0,0,1-1.07-.689,3.253,3.253,0,0,1-.71-1.194,5.243,5.243,0,0,1-.26-1.735v-16.61h7.73V756.6h-7.73v-9.351h-1.11a0.5,0.5,0,0,0-.41.172,0.856,0.856,0,0,0-.2.394l-0.59,8.761-4.18.295v0.911a0.5,0.5,0,0,0,.17.418,0.643,0.643,0,0,0,.44.148h3.52v16.733a5.758,5.758,0,0,0,1.39,4.258,5.279,5.279,0,0,0,3.88,1.378A7.427,7.427,0,0,0,1334.48,780.093Zm59.09-3.777V745.063h-4.74v35.264h20v-4.011h-15.26Zm33.99-2.043a14.482,14.482,0,0,1-1.51,1.4,10.2,10.2,0,0,1-1.63,1.058,7.9,7.9,0,0,1-1.81.677,8.887,8.887,0,0,1-2.11.234,5.988,5.988,0,0,1-1.62-.21,3.484,3.484,0,0,1-1.3-.664,3.1,3.1,0,0,1-.87-1.169,4.021,4.021,0,0,1-.32-1.7,3.133,3.133,0,0,1,.6-1.87,4.786,4.786,0,0,1,1.94-1.452,14.773,14.773,0,0,1,3.47-1,36.661,36.661,0,0,1,5.16-.48v5.168ZM1414.2,760.32a1.938,1.938,0,0,0,.54.579,1.252,1.252,0,0,0,.76.233,1.954,1.954,0,0,0,1.14-.406q0.585-.4,1.38-0.91a10.514,10.514,0,0,1,1.9-.911,7.876,7.876,0,0,1,2.72-.406,4.515,4.515,0,0,1,3.66,1.489,6.647,6.647,0,0,1,1.26,4.393v1.944a36.281,36.281,0,0,0-7.19.775,17.386,17.386,0,0,0-4.75,1.735,7.118,7.118,0,0,0-2.63,2.424,5.494,5.494,0,0,0-.81,2.842,7.171,7.171,0,0,0,.55,2.941,5.754,5.754,0,0,0,1.5,2.054,6.333,6.333,0,0,0,2.23,1.219,8.968,8.968,0,0,0,2.73.406,12.117,12.117,0,0,0,2.6-.259,10.655,10.655,0,0,0,2.2-.738,10.881,10.881,0,0,0,1.97-1.181q0.93-.7,1.92-1.612l0.49,2.362a1.417,1.417,0,0,0,.54.825,1.929,1.929,0,0,0,.99.209h1.94V764.381a12.32,12.32,0,0,0-.57-3.839,8,8,0,0,0-1.67-2.978,7.652,7.652,0,0,0-2.73-1.919,9.439,9.439,0,0,0-3.72-.689,13.769,13.769,0,0,0-5.29.984,14.251,14.251,0,0,0-4.45,2.978Zm35.92,19.8a8.225,8.225,0,0,0,2.74-1.661l-1.28-2.092a0.759,0.759,0,0,0-.62-0.418,0.8,0.8,0,0,0-.45.184c-0.18.123-.39,0.259-0.63,0.406a5.437,5.437,0,0,1-.87.406,3.527,3.527,0,0,1-1.2.185,2.674,2.674,0,0,1-1.97-.763,3.176,3.176,0,0,1-.76-2.338V759.065h7.21v-3.174h-7.21V747.3h-2.21a0.972,0.972,0,0,0-.68.234,1.088,1.088,0,0,0-.33.6l-1.01,7.7-4.09.517v1.747a0.908,0.908,0,0,0,.27.726,0.994,0.994,0,0,0,.67.234h3v15.257a6.572,6.572,0,0,0,1.59,4.75,6.01,6.01,0,0,0,4.54,1.649A9.216,9.216,0,0,0,1450.12,780.118Zm13.11-24.2a10.473,10.473,0,0,0-3.75,2.584,11.269,11.269,0,0,0-2.38,4.048,17.6,17.6,0,0,0,0,10.619,11.285,11.285,0,0,0,2.38,4.036,10.343,10.343,0,0,0,3.75,2.571,13.028,13.028,0,0,0,4.96.9,12.856,12.856,0,0,0,4.92-.9,10.39,10.39,0,0,0,3.74-2.571,11.412,11.412,0,0,0,2.37-4.036,17.4,17.4,0,0,0,0-10.619,11.4,11.4,0,0,0-2.37-4.048,10.522,10.522,0,0,0-3.74-2.584,12.725,12.725,0,0,0-4.92-.91A12.9,12.9,0,0,0,1463.23,755.915Zm-0.62,18.863a11.411,11.411,0,0,1-1.83-6.9,15.584,15.584,0,0,1,.46-3.974,8.222,8.222,0,0,1,1.37-2.966,6.1,6.1,0,0,1,2.32-1.845,7.692,7.692,0,0,1,3.26-.64,6.381,6.381,0,0,1,5.51,2.485,14.071,14.071,0,0,1,0,13.843,6.393,6.393,0,0,1-5.51,2.473A6.5,6.5,0,0,1,1462.61,774.778Zm41.41-18.174a1.7,1.7,0,0,0-.37-0.935,1.4,1.4,0,0,0-.99-0.27h-2.51v24.928h4.41v-15.75a14.763,14.763,0,0,1,1.04-2.276,7.194,7.194,0,0,1,1.31-1.673,4.846,4.846,0,0,1,1.65-1.021,5.928,5.928,0,0,1,2.1-.345,6.866,6.866,0,0,1,1.5.148,5.177,5.177,0,0,0,1.01.147,0.71,0.71,0,0,0,.74-0.615l0.32-3.273a4.118,4.118,0,0,0-1.29-.541,6.589,6.589,0,0,0-1.52-.172,6.317,6.317,0,0,0-4.2,1.439,11.267,11.267,0,0,0-2.91,4Zm17.08,8.539a8.565,8.565,0,0,1,2.27-5.081,6.723,6.723,0,0,1,4.98-1.833,6.792,6.792,0,0,1,2.69.5,5.646,5.646,0,0,1,2,1.427,6.328,6.328,0,0,1,1.26,2.19,8.839,8.839,0,0,1,.43,2.793H1521.1Zm15.94,10.09a0.962,0.962,0,0,0-.84-0.418,1.9,1.9,0,0,0-.99.381q-0.585.383-1.44,0.824a13.558,13.558,0,0,1-2.06.825,9.35,9.35,0,0,1-2.84.381,8.445,8.445,0,0,1-3.2-.578,6.52,6.52,0,0,1-2.46-1.747,8.148,8.148,0,0,1-1.61-2.916,14.451,14.451,0,0,1-.65-4.11h16.66a0.9,0.9,0,0,0,.83-0.345,2.8,2.8,0,0,0,.23-1.378,13.425,13.425,0,0,0-.79-4.737,9.951,9.951,0,0,0-2.18-3.494,9.444,9.444,0,0,0-3.3-2.166,11.2,11.2,0,0,0-4.14-.75,12.087,12.087,0,0,0-4.88.947,10.592,10.592,0,0,0-3.66,2.609,11.443,11.443,0,0,0-2.3,3.925,14.352,14.352,0,0,0-.8,4.872,16.973,16.973,0,0,0,.88,5.709,11.714,11.714,0,0,0,2.48,4.172,10.382,10.382,0,0,0,3.76,2.559,12.677,12.677,0,0,0,4.76.873,16.411,16.411,0,0,0,2.73-.233,15.323,15.323,0,0,0,2.67-.7,12.025,12.025,0,0,0,2.43-1.193,8.351,8.351,0,0,0,1.94-1.711Zm14.32-7.456a4.688,4.688,0,0,1-1.69-1.034,4.388,4.388,0,0,1-1.05-1.587,5.54,5.54,0,0,1-.36-2.03,4.874,4.874,0,0,1,1.39-3.642,5.584,5.584,0,0,1,4.05-1.354,5.508,5.508,0,0,1,4.02,1.354,4.842,4.842,0,0,1,1.4,3.642,5.755,5.755,0,0,1-.35,2.03,4.217,4.217,0,0,1-1.03,1.587,4.819,4.819,0,0,1-1.7,1.034,6.777,6.777,0,0,1-2.34.369A6.858,6.858,0,0,1,1551.36,767.777Zm9.72,15.7a4.466,4.466,0,0,1-1.48,1.4,7.96,7.96,0,0,1-2.38.911,16.159,16.159,0,0,1-6.34.012,7.716,7.716,0,0,1-2.22-.836,3.721,3.721,0,0,1-1.32-1.255,2.988,2.988,0,0,1-.43-1.563,3.3,3.3,0,0,1,.87-2.276,7.037,7.037,0,0,1,2.25-1.612c0.82,0.115,1.68.2,2.56,0.246l2.62,0.147c0.87,0.05,1.68.12,2.45,0.21a8.93,8.93,0,0,1,2.03.455,3.363,3.363,0,0,1,1.39.886,2.08,2.08,0,0,1,.52,1.476A3.24,3.24,0,0,1,1561.08,783.477Zm-1.79-27.094a9.663,9.663,0,0,0-2.56-1.046,13.038,13.038,0,0,0-6.83.209,8.964,8.964,0,0,0-2.99,1.612,7.322,7.322,0,0,0-1.96,2.535,7.783,7.783,0,0,0-.7,3.31,7.413,7.413,0,0,0,3.91,6.718,6.451,6.451,0,0,0-1.37.91,5.979,5.979,0,0,0-1,1.1,4.59,4.59,0,0,0-.6,1.157,3.8,3.8,0,0,0,.45,3.347,4.575,4.575,0,0,0,1.76,1.316,8.015,8.015,0,0,0-3.17,2.043,4.5,4.5,0,0,0-1.16,3.125,5.012,5.012,0,0,0,.68,2.5,6.246,6.246,0,0,0,2.03,2.1,11.21,11.21,0,0,0,3.39,1.452,18.837,18.837,0,0,0,4.78.541,16.044,16.044,0,0,0,4.91-.7,11.984,11.984,0,0,0,3.68-1.871,8.476,8.476,0,0,0,2.3-2.67,6.551,6.551,0,0,0,.8-3.1,4.981,4.981,0,0,0-.73-2.806,5.056,5.056,0,0,0-1.91-1.7,9.277,9.277,0,0,0-2.69-.886,29.232,29.232,0,0,0-3.1-.381c-1.06-.074-2.09-0.127-3.1-0.16a20.794,20.794,0,0,1-2.7-.246,5.166,5.166,0,0,1-1.9-.652,1.476,1.476,0,0,1-.73-1.341,1.842,1.842,0,0,1,.42-1.12,4.508,4.508,0,0,1,1.2-1.046,12.687,12.687,0,0,0,3.3.418,11.881,11.881,0,0,0,3.74-.566,8.526,8.526,0,0,0,2.95-1.624,7.629,7.629,0,0,0,1.94-2.547,8.136,8.136,0,0,0-.14-6.9l2.83-.369a1.063,1.063,0,0,0,1.03-1.034v-1.624h-6.76Zm11.8,22.455a3.043,3.043,0,0,0,.64.972,2.816,2.816,0,0,0,.97.652,3.22,3.22,0,0,0,2.41,0,2.858,2.858,0,0,0,.98-0.652,3.306,3.306,0,0,0,.67-0.972,3.029,3.029,0,0,0,.24-1.218,3.062,3.062,0,0,0-.24-1.206,3.261,3.261,0,0,0-.67-0.984,3.075,3.075,0,0,0-3.39-.665,2.98,2.98,0,0,0-.97.665,3.01,3.01,0,0,0-.64.984,3.062,3.062,0,0,0-.24,1.206A3.029,3.029,0,0,0,1571.09,778.838Zm61.81-2.916V744.989h-5.25v35.338h20.23v-4.4H1632.9Zm33.54-1.772a13.508,13.508,0,0,1-1.46,1.354,8.35,8.35,0,0,1-1.55,1,8.119,8.119,0,0,1-1.73.628,8.752,8.752,0,0,1-2.03.221,5.739,5.739,0,0,1-1.55-.2,3.288,3.288,0,0,1-1.24-.627,2.878,2.878,0,0,1-.84-1.108,3.79,3.79,0,0,1-.31-1.611,3,3,0,0,1,.57-1.784,4.533,4.533,0,0,1,1.84-1.391,13.723,13.723,0,0,1,3.33-.947,36.485,36.485,0,0,1,4.97-.456v4.922Zm-13.22-13.781a2.247,2.247,0,0,0,.58.64,1.365,1.365,0,0,0,.85.271,2.068,2.068,0,0,0,1.19-.394c0.39-.262.84-0.553,1.36-0.873a10.067,10.067,0,0,1,1.84-.874,7.784,7.784,0,0,1,2.65-.394,4.4,4.4,0,0,1,3.54,1.4,6.378,6.378,0,0,1,1.21,4.233V766.2a35.412,35.412,0,0,0-7.18.787,16.728,16.728,0,0,0-4.72,1.772,7.159,7.159,0,0,0-2.61,2.448,5.581,5.581,0,0,0-.8,2.843,7.186,7.186,0,0,0,.55,2.928,5.9,5.9,0,0,0,1.52,2.092,6.225,6.225,0,0,0,2.25,1.243,9.183,9.183,0,0,0,2.77.406,12.428,12.428,0,0,0,2.56-.246,9.974,9.974,0,0,0,2.17-.726,11.664,11.664,0,0,0,1.96-1.157,21.143,21.143,0,0,0,1.9-1.563l0.51,2.19a1.657,1.657,0,0,0,.59.874,2.068,2.068,0,0,0,1.09.234h2.14V764.381a12.4,12.4,0,0,0-.58-3.864,8.458,8.458,0,0,0-1.71-3,7.837,7.837,0,0,0-2.78-1.957,9.614,9.614,0,0,0-3.79-.7,13.727,13.727,0,0,0-9.92,3.962Zm36.23,19.761a8.319,8.319,0,0,0,2.8-1.673l-1.43-2.314a1.223,1.223,0,0,0-.28-0.356,0.589,0.589,0,0,0-.38-0.111,0.79,0.79,0,0,0-.44.172c-0.17.115-.36,0.242-0.59,0.382a4.679,4.679,0,0,1-.83.381,3.377,3.377,0,0,1-1.14.172,2.506,2.506,0,0,1-1.86-.726,3.01,3.01,0,0,1-.73-2.2V759.213h7.09v-3.5h-7.09v-8.391h-2.43a1.107,1.107,0,0,0-.73.234,1.175,1.175,0,0,0-.38.652l-1.08,7.456-4.06.566v1.944a0.932,0.932,0,0,0,.98,1.034h2.9v14.962a6.713,6.713,0,0,0,1.64,4.848,6.178,6.178,0,0,0,4.66,1.7A9.841,9.841,0,0,0,1689.45,780.13Zm13.1-24.3a10.552,10.552,0,0,0-3.8,2.584,11.639,11.639,0,0,0-2.43,4.06,17.355,17.355,0,0,0,0,10.668,11.491,11.491,0,0,0,2.43,4.061,10.623,10.623,0,0,0,3.8,2.571,14.341,14.341,0,0,0,9.99,0,10.412,10.412,0,0,0,3.79-2.571,11.432,11.432,0,0,0,2.4-4.061,17.355,17.355,0,0,0,0-10.668,11.579,11.579,0,0,0-2.4-4.06,10.345,10.345,0,0,0-3.79-2.584A14.341,14.341,0,0,0,1702.55,755.829Zm-0.34,18.715a13.726,13.726,0,0,1,0-13.449,6.189,6.189,0,0,1,5.35-2.4,6.124,6.124,0,0,1,5.29,2.4,13.795,13.795,0,0,1,0,13.449,6.136,6.136,0,0,1-5.29,2.387A6.2,6.2,0,0,1,1702.21,774.544Zm41.89,5.783V761.772a9.3,9.3,0,0,1,2.44-2.215,5.4,5.4,0,0,1,2.88-.812,4.175,4.175,0,0,1,3.39,1.378,6.585,6.585,0,0,1,1.16,4.282v15.922h4.82V764.405a6.863,6.863,0,0,1,.41-2.461,5.052,5.052,0,0,1,1.11-1.771,4.475,4.475,0,0,1,1.63-1.071,5.462,5.462,0,0,1,1.97-.357,4.432,4.432,0,0,1,3.56,1.428,6.38,6.38,0,0,1,1.21,4.232v15.922h4.83V764.405a13.171,13.171,0,0,0-.57-4.036,8.123,8.123,0,0,0-1.65-2.977,7,7,0,0,0-2.64-1.834,9.5,9.5,0,0,0-3.56-.627,9.984,9.984,0,0,0-2.42.295,8.4,8.4,0,0,0-2.25.911,7.759,7.759,0,0,0-1.92,1.575,7.665,7.665,0,0,0-1.41,2.288,7.83,7.83,0,0,0-2.26-3.7,5.878,5.878,0,0,0-4.04-1.366,7.354,7.354,0,0,0-3.95,1.046,12.867,12.867,0,0,0-3.06,2.694l-0.34-2.387a1.182,1.182,0,0,0-1.26-.959h-2.88v25h4.8Zm40.33-15.282a8.427,8.427,0,0,1,2.21-4.848,6.394,6.394,0,0,1,4.76-1.747,6.532,6.532,0,0,1,2.61.492,5.534,5.534,0,0,1,1.92,1.378,6.043,6.043,0,0,1,1.19,2.092,8.227,8.227,0,0,1,.4,2.633h-13.09Zm15.68,9.942a1.057,1.057,0,0,0-.91-0.443,1.937,1.937,0,0,0-1.02.369c-0.39.246-.86,0.513-1.43,0.8a13.709,13.709,0,0,1-2.02.8,9.236,9.236,0,0,1-2.77.369,8.328,8.328,0,0,1-3.07-.542,6.25,6.25,0,0,1-2.38-1.648,8,8,0,0,1-1.56-2.769,13.435,13.435,0,0,1-.64-3.9h16.39a1,1,0,0,0,.91-0.382,3.08,3.08,0,0,0,.25-1.489,13.372,13.372,0,0,0-.8-4.774,10.13,10.13,0,0,0-2.21-3.519,9.291,9.291,0,0,0-3.33-2.177,11.572,11.572,0,0,0-4.22-.751,12.132,12.132,0,0,0-4.92.96,10.756,10.756,0,0,0-3.71,2.633,11.649,11.649,0,0,0-2.32,3.925,14.252,14.252,0,0,0-.81,4.86,17.16,17.16,0,0,0,.89,5.746,11.761,11.761,0,0,0,2.51,4.184,10.7,10.7,0,0,0,3.82,2.559,12.871,12.871,0,0,0,4.79.873,17.383,17.383,0,0,0,2.74-.221,14.824,14.824,0,0,0,2.69-.689,11.84,11.84,0,0,0,2.46-1.218,9.259,9.259,0,0,0,2.05-1.784Zm24.02-1.747a10.971,10.971,0,0,1-2.86,2.633,6.793,6.793,0,0,1-3.62.935,6.158,6.158,0,0,1-2.55-.5,4.616,4.616,0,0,1-1.91-1.575,7.688,7.688,0,0,1-1.18-2.756,17.64,17.64,0,0,1-.41-4.072q0-4.552,1.81-6.928a6.054,6.054,0,0,1,5.11-2.374,7.368,7.368,0,0,1,3.06.615,6.822,6.822,0,0,1,2.55,2.165V773.24Zm0-29.235v13.682a8.469,8.469,0,0,0-6.7-2.83,9.924,9.924,0,0,0-4.5,1,10.143,10.143,0,0,0-3.4,2.744,12.414,12.414,0,0,0-2.14,4.134,17.479,17.479,0,0,0-.74,5.168,20.626,20.626,0,0,0,.67,5.487,11.62,11.62,0,0,0,1.89,4,8.143,8.143,0,0,0,2.97,2.449,8.825,8.825,0,0,0,3.87.836,9.359,9.359,0,0,0,4.69-1.144,13.076,13.076,0,0,0,3.63-3.039l0.42,2.879a1.169,1.169,0,0,0,1.26.96h2.9V744.005h-4.82Zm11.98,34.722a3.162,3.162,0,0,0,.68,1.034,2.906,2.906,0,0,0,1.02.689,3.281,3.281,0,0,0,1.28.246,3.247,3.247,0,0,0,2.29-.935,3.385,3.385,0,0,0,.7-1.034,3.192,3.192,0,0,0,.26-1.279,3.133,3.133,0,0,0-.26-1.255,3.385,3.385,0,0,0-.7-1.034,3.35,3.35,0,0,0-1.04-.7,3.059,3.059,0,0,0-1.25-.259,3.132,3.132,0,0,0-1.28.259,3.046,3.046,0,0,0-1.02.7,3.162,3.162,0,0,0-.68,1.034,3.306,3.306,0,0,0-.25,1.255A3.367,3.367,0,0,0,1836.11,778.727Z" transform="translate(-1137.28 -744)"/>
</svg>
