<svg xmlns="http://www.w3.org/2000/svg" width="585.689" height="140.375" viewBox="0 0 585.689 140.375">
  <defs>
    <style>
      .cls-1 {
        fill: #fff;
        fill-rule: evenodd;
      }
    </style>
  </defs>
  <path id="Roboto_bold" data-name="Roboto bold" class="cls-1" d="M952.485,540.761V499.579h-3.194v43.88h23.971v-2.7H952.485Zm45.306-4.155q-1.086,1.116-2.2,2.078a13.644,13.644,0,0,1-2.4,1.659,12.22,12.22,0,0,1-2.791,1.085,13.2,13.2,0,0,1-3.3.388,7.925,7.925,0,0,1-2.326-.341,5.445,5.445,0,0,1-1.969-1.07,5.238,5.238,0,0,1-1.365-1.861,6.465,6.465,0,0,1-.512-2.682,4.67,4.67,0,0,1,.993-2.931,7.824,7.824,0,0,1,3.054-2.217,21.881,21.881,0,0,1,5.241-1.473,57.95,57.95,0,0,1,7.582-.7v8.063Zm-17.614-18.73a1.4,1.4,0,0,0,.372.4,0.941,0.941,0,0,0,.558.155,1.914,1.914,0,0,0,1.148-.621,16.64,16.64,0,0,1,1.768-1.364,13.416,13.416,0,0,1,2.651-1.364,10.319,10.319,0,0,1,3.8-.621,6.585,6.585,0,0,1,5.473,2.311,10.332,10.332,0,0,1,1.845,6.589v3.226a53.067,53.067,0,0,0-8.977.868,23.261,23.261,0,0,0-6.125,1.985,9.141,9.141,0,0,0-3.5,2.915,6.413,6.413,0,0,0-1.117,3.628,8.536,8.536,0,0,0,.7,3.613,6.914,6.914,0,0,0,1.861,2.465,7.734,7.734,0,0,0,2.651,1.426,10.21,10.21,0,0,0,3.07.466,15.124,15.124,0,0,0,3.474-.373,13.449,13.449,0,0,0,2.946-1.054,15.1,15.1,0,0,0,2.62-1.675,32.349,32.349,0,0,0,2.527-2.232l0.434,3.969a1.063,1.063,0,0,0,1.148.868h1.183V523.364a16.532,16.532,0,0,0-.62-4.667,10.005,10.005,0,0,0-1.85-3.566,8.02,8.02,0,0,0-3.086-2.264,11.031,11.031,0,0,0-4.341-.791,14.175,14.175,0,0,0-6.047,1.241,17.934,17.934,0,0,0-5.086,3.659Zm43.463,25.289a8.532,8.532,0,0,0,2.99-2.093l-0.8-1.3a0.7,0.7,0,0,0-.5-0.31,1.05,1.05,0,0,0-.59.326,9.368,9.368,0,0,1-.96.713,7.8,7.8,0,0,1-1.4.713,5.1,5.1,0,0,1-1.92.326,4.853,4.853,0,0,1-1.67-.279,3.486,3.486,0,0,1-1.35-.869,3.888,3.888,0,0,1-.9-1.5,6.451,6.451,0,0,1-.33-2.186V515.767h9.74v-2.2h-9.74V501.781h-1.39a0.656,0.656,0,0,0-.53.217,1.059,1.059,0,0,0-.25.5l-0.74,11.04-5.28.372v1.148a0.674,0.674,0,0,0,.22.527,0.837,0.837,0,0,0,.56.186h4.43v21.087q0,3.629,1.76,5.365a6.609,6.609,0,0,0,4.88,1.737A9.358,9.358,0,0,0,1023.64,543.165Zm16.47-29.926a12.254,12.254,0,0,0-4.44,3.21,14.071,14.071,0,0,0-2.76,5.008,23.3,23.3,0,0,0,0,13.1,14.08,14.08,0,0,0,2.76,4.993,12.088,12.088,0,0,0,4.44,3.194,16.326,16.326,0,0,0,11.87,0,11.934,11.934,0,0,0,4.42-3.194,14.218,14.218,0,0,0,2.75-4.993,23.3,23.3,0,0,0,0-13.1,14.209,14.209,0,0,0-2.75-5.008,12.1,12.1,0,0,0-4.42-3.21A16.138,16.138,0,0,0,1040.11,513.239Zm1.11,27.352a9.16,9.16,0,0,1-3.44-2.714,12.24,12.24,0,0,1-2.08-4.264,22.666,22.666,0,0,1,0-11.179,12.414,12.414,0,0,1,2.08-4.295,9.246,9.246,0,0,1,3.44-2.744,12.581,12.581,0,0,1,9.65,0,9.246,9.246,0,0,1,3.44,2.744,12.042,12.042,0,0,1,2.06,4.295,23.312,23.312,0,0,1,0,11.179,11.874,11.874,0,0,1-2.06,4.264,9.16,9.16,0,0,1-3.44,2.714A12.778,12.778,0,0,1,1041.22,540.591Zm46.81-42.252v45.12h2.98v-45.12h-2.98Zm15.01,14.265v30.855h2.95V512.6h-2.95Zm3.99-11.707a3.053,3.053,0,0,0-.61-0.884,2.852,2.852,0,0,0-.87-0.589,2.6,2.6,0,0,0-1.05-.217,2.741,2.741,0,0,0-2.51,1.69,2.626,2.626,0,0,0-.22,1.07,2.416,2.416,0,0,0,.22,1.039,2.741,2.741,0,0,0,.59.853,2.691,2.691,0,0,0,.86.589,2.663,2.663,0,0,0,1.06.217,2.581,2.581,0,0,0,1.05-.217,2.852,2.852,0,0,0,.87-0.589,3.191,3.191,0,0,0,.61-0.853,2.423,2.423,0,0,0,.23-1.039A2.635,2.635,0,0,0,1107.03,500.9Zm17.3,28.344a7.639,7.639,0,0,1-2.61-1.6,6.737,6.737,0,0,1-1.62-2.45,8.452,8.452,0,0,1-.56-3.163,8.577,8.577,0,0,1,.56-3.179,6.712,6.712,0,0,1,1.62-2.465,7.472,7.472,0,0,1,2.61-1.582,11.193,11.193,0,0,1,6.98,0,7.338,7.338,0,0,1,2.6,1.582,6.909,6.909,0,0,1,1.65,2.465,9.181,9.181,0,0,1,.01,6.342,6.843,6.843,0,0,1-1.61,2.45,7.275,7.275,0,0,1-2.61,1.6,10.1,10.1,0,0,1-3.53.574A9.909,9.909,0,0,1,1124.33,529.241Zm14.17,19.211a7.538,7.538,0,0,1-2.36,2.295,12.216,12.216,0,0,1-3.53,1.488,17.4,17.4,0,0,1-4.39.528,18.441,18.441,0,0,1-4.5-.5,11.43,11.43,0,0,1-3.3-1.349,6.078,6.078,0,0,1-2.04-2.015,4.97,4.97,0,0,1-.3-4.5,6.093,6.093,0,0,1,1.12-1.69,7.736,7.736,0,0,1,1.7-1.38,14.317,14.317,0,0,1,2.17-1.07,29.027,29.027,0,0,0,3.45.372l3.64,0.186c1.21,0.062,2.37.161,3.47,0.3a11.954,11.954,0,0,1,2.93.7,4.965,4.965,0,0,1,2.03,1.38,3.448,3.448,0,0,1,.76,2.341A5.29,5.29,0,0,1,1138.5,548.452Zm-3.83-34.484a11.3,11.3,0,0,0-3.08-1.395,14.576,14.576,0,0,0-8.28.217,10.222,10.222,0,0,0-3.49,2.015,8.968,8.968,0,0,0-2.25,3.117,9.975,9.975,0,0,0-.79,4.047A9.707,9.707,0,0,0,1118,526.9a9.214,9.214,0,0,0,3.43,3.38,9.065,9.065,0,0,0-1.61,1.116,7.382,7.382,0,0,0-1.21,1.318,5.853,5.853,0,0,0-.75,1.411,4.277,4.277,0,0,0-.24,1.365,3.848,3.848,0,0,0,.94,2.744,5.957,5.957,0,0,0,2.5,1.535,10.809,10.809,0,0,0-4.41,2.745,6.006,6.006,0,0,0-1.61,4.2,6.34,6.34,0,0,0,.84,3.163,7.876,7.876,0,0,0,2.5,2.62,13.519,13.519,0,0,0,4.1,1.8,21.937,21.937,0,0,0,5.71.666,18.971,18.971,0,0,0,5.77-.821,14.734,14.734,0,0,0,4.39-2.187,9.733,9.733,0,0,0,2.77-3.132,7.626,7.626,0,0,0,.96-3.69,5.411,5.411,0,0,0-.94-3.334,6.323,6.323,0,0,0-2.48-1.953,12.876,12.876,0,0,0-3.51-.977c-1.31-.186-2.65-0.315-4.01-0.388s-2.71-.139-4.02-0.2a21.951,21.951,0,0,1-3.5-.419,6.165,6.165,0,0,1-2.48-1.039,2.387,2.387,0,0,1-.95-2.047,3.3,3.3,0,0,1,.76-2,6.706,6.706,0,0,1,2.06-1.752,13.721,13.721,0,0,0,4.81.806,13.425,13.425,0,0,0,4.48-.713,10.245,10.245,0,0,0,3.47-2,8.907,8.907,0,0,0,2.24-3.1,10.151,10.151,0,0,0,.79-4.047,10.355,10.355,0,0,0-.47-3.163,9.005,9.005,0,0,0-1.33-2.636l4.71-.341a0.858,0.858,0,0,0,.87-0.837v-1.024h-7.91Zm18.95-15.629h-2.98v45.12h2.98v-23.2a15.828,15.828,0,0,1,4.67-4.264,10.918,10.918,0,0,1,5.62-1.535q4.065,0,6.05,2.466a10.588,10.588,0,0,1,1.99,6.807v19.722h2.97V523.737a16.406,16.406,0,0,0-.65-4.838,10.183,10.183,0,0,0-1.92-3.659,8.268,8.268,0,0,0-3.21-2.326,11.59,11.59,0,0,0-4.48-.806,12.3,12.3,0,0,0-6.16,1.55,17.393,17.393,0,0,0-4.88,4.155V498.339Zm44.17,44.826a8.667,8.667,0,0,0,3-2.093l-0.81-1.3a0.68,0.68,0,0,0-.5-0.31,1.031,1.031,0,0,0-.58.326,8.6,8.6,0,0,1-.97.713,7.683,7.683,0,0,1-1.39.713,5.137,5.137,0,0,1-1.92.326,4.952,4.952,0,0,1-1.68-.279,3.486,3.486,0,0,1-1.35-.869,4.147,4.147,0,0,1-.9-1.5,6.725,6.725,0,0,1-.32-2.186V515.767h9.73v-2.2h-9.73V501.781h-1.4a0.669,0.669,0,0,0-.53.217,1.143,1.143,0,0,0-.24.5l-0.75,11.04-5.27.372v1.148a0.642,0.642,0,0,0,.22.527,0.82,0.82,0,0,0,.56.186h4.43v21.087q0,3.629,1.75,5.365a6.65,6.65,0,0,0,4.89,1.737A9.311,9.311,0,0,0,1197.79,543.165Zm64.3-4.76V499.021h-5.98v44.438h25.21v-5.054h-19.23Zm42.83-2.574a17.709,17.709,0,0,1-1.91,1.767,12.514,12.514,0,0,1-2.05,1.334,10.064,10.064,0,0,1-2.27.853,11.35,11.35,0,0,1-2.67.294,7.483,7.483,0,0,1-2.03-.263,4.488,4.488,0,0,1-1.65-.838,4.036,4.036,0,0,1-1.1-1.473,5.176,5.176,0,0,1-.4-2.139,3.912,3.912,0,0,1,.76-2.357,6.04,6.04,0,0,1,2.45-1.83,18.539,18.539,0,0,1,4.37-1.256,46.236,46.236,0,0,1,6.5-.605v6.513Zm-16.84-17.583a2.735,2.735,0,0,0,.68.728,1.584,1.584,0,0,0,.96.295,2.528,2.528,0,0,0,1.45-.512c0.48-.341,1.06-0.723,1.73-1.147a12.8,12.8,0,0,1,2.39-1.147,9.911,9.911,0,0,1,3.43-.512,5.717,5.717,0,0,1,4.62,1.876,8.422,8.422,0,0,1,1.58,5.535v2.45a45.721,45.721,0,0,0-9.06.977,21.775,21.775,0,0,0-5.98,2.186,8.96,8.96,0,0,0-3.32,3.055,6.927,6.927,0,0,0-1.02,3.582,9.132,9.132,0,0,0,.69,3.7,7.24,7.24,0,0,0,1.9,2.59,7.917,7.917,0,0,0,2.8,1.535,11.329,11.329,0,0,0,3.44.512,15.317,15.317,0,0,0,3.28-.326,13.5,13.5,0,0,0,2.77-.93,13.648,13.648,0,0,0,2.48-1.489,30.481,30.481,0,0,0,2.42-2.031l0.62,2.977a1.814,1.814,0,0,0,.68,1.039,2.422,2.422,0,0,0,1.24.263h2.45V523.364a15.494,15.494,0,0,0-.71-4.837,10.177,10.177,0,0,0-2.11-3.753,9.639,9.639,0,0,0-3.44-2.418,11.89,11.89,0,0,0-4.68-.869,17.358,17.358,0,0,0-6.67,1.241,17.793,17.793,0,0,0-5.61,3.752Zm45.28,24.948a10.309,10.309,0,0,0,3.44-2.093l-1.61-2.636a0.96,0.96,0,0,0-.78-0.528,1,1,0,0,0-.57.233c-0.22.155-.48,0.326-0.79,0.512a6.346,6.346,0,0,1-1.11.511,4.336,4.336,0,0,1-1.5.233,3.358,3.358,0,0,1-2.48-.961,4.014,4.014,0,0,1-.96-2.946V516.666h9.08v-4H1327V501.843h-2.79a1.246,1.246,0,0,0-.86.295,1.367,1.367,0,0,0-.41.759l-1.28,9.707-5.14.651v2.2a1.134,1.134,0,0,0,.34.914,1.229,1.229,0,0,0,.84.3h3.78v19.227a8.306,8.306,0,0,0,2,5.985,7.566,7.566,0,0,0,5.72,2.078A11.736,11.736,0,0,0,1333.36,543.2Zm16.51-30.5a13.243,13.243,0,0,0-4.73,3.256,14.286,14.286,0,0,0-2.99,5.1,22.041,22.041,0,0,0,0,13.381,14.307,14.307,0,0,0,2.99,5.086,13.082,13.082,0,0,0,4.73,3.241,16.418,16.418,0,0,0,6.25,1.132,16.23,16.23,0,0,0,6.2-1.132,13.091,13.091,0,0,0,4.71-3.241,14.327,14.327,0,0,0,3-5.086,22.041,22.041,0,0,0,0-13.381,14.306,14.306,0,0,0-3-5.1,13.253,13.253,0,0,0-4.71-3.256,16.024,16.024,0,0,0-6.2-1.148A16.209,16.209,0,0,0,1349.87,512.7Zm-0.78,23.769q-2.31-3.115-2.31-8.7a19.668,19.668,0,0,1,.58-5.008,10.372,10.372,0,0,1,1.73-3.737,7.675,7.675,0,0,1,2.92-2.326,9.77,9.77,0,0,1,4.11-.806q4.65,0,6.94,3.132t2.3,8.745q0,5.582-2.3,8.7t-6.94,3.117C1352.98,539.583,1350.63,538.544,1349.09,536.466Zm52.18-22.9a2.053,2.053,0,0,0-.47-1.178,1.728,1.728,0,0,0-1.24-.342h-3.16v31.414h5.55V523.612a17.5,17.5,0,0,1,1.32-2.868,8.944,8.944,0,0,1,1.64-2.109,6.181,6.181,0,0,1,2.08-1.287,7.576,7.576,0,0,1,2.65-.434,8.772,8.772,0,0,1,1.89.186,6.406,6.406,0,0,0,1.27.186,0.883,0.883,0,0,0,.93-0.775l0.41-4.124a5.155,5.155,0,0,0-1.63-.683,8.308,8.308,0,0,0-1.91-.217,7.989,7.989,0,0,0-5.3,1.814,14.114,14.114,0,0,0-3.66,5.04Zm21.52,10.761a10.813,10.813,0,0,1,2.87-6.4,9.564,9.564,0,0,1,9.66-1.675,7.159,7.159,0,0,1,2.53,1.8,7.909,7.909,0,0,1,1.58,2.76,10.935,10.935,0,0,1,.54,3.52h-17.18Zm20.1,12.714a1.222,1.222,0,0,0-1.06-.527,2.429,2.429,0,0,0-1.26.481,19.411,19.411,0,0,1-1.81,1.038,16.877,16.877,0,0,1-2.59,1.039,11.808,11.808,0,0,1-3.58.481,10.637,10.637,0,0,1-4.03-.729,8.192,8.192,0,0,1-3.1-2.2,10.284,10.284,0,0,1-2.03-3.675,18.489,18.489,0,0,1-.83-5.179h21a1.139,1.139,0,0,0,1.05-.434,3.551,3.551,0,0,0,.28-1.737,16.8,16.8,0,0,0-.99-5.969,12.591,12.591,0,0,0-2.74-4.4,11.877,11.877,0,0,0-4.16-2.729,14.139,14.139,0,0,0-5.23-.946,15.2,15.2,0,0,0-6.14,1.194,13.335,13.335,0,0,0-4.62,3.287,14.63,14.63,0,0,0-2.9,4.947,18.351,18.351,0,0,0-1,6.14,21.484,21.484,0,0,0,1.11,7.194,14.93,14.93,0,0,0,3.12,5.257,13.122,13.122,0,0,0,4.74,3.225,15.992,15.992,0,0,0,6,1.1,20.68,20.68,0,0,0,3.45-.295,19.353,19.353,0,0,0,3.36-.884,15.365,15.365,0,0,0,3.06-1.5,10.642,10.642,0,0,0,2.45-2.155Zm18.04-9.4a6.075,6.075,0,0,1-2.14-1.3,5.453,5.453,0,0,1-1.31-2,7.031,7.031,0,0,1-.45-2.558,6.1,6.1,0,0,1,1.75-4.59,8.435,8.435,0,0,1,10.17,0,6.1,6.1,0,0,1,1.75,4.59,7.248,7.248,0,0,1-.43,2.558,5.43,5.43,0,0,1-1.3,2,6.075,6.075,0,0,1-2.14,1.3A9.59,9.59,0,0,1,1460.93,527.644Zm12.25,19.785a5.633,5.633,0,0,1-1.87,1.767,10.1,10.1,0,0,1-3,1.148,20.325,20.325,0,0,1-7.98.015,9.767,9.767,0,0,1-2.81-1.054,4.652,4.652,0,0,1-1.66-1.582,3.807,3.807,0,0,1-.54-1.969,4.169,4.169,0,0,1,1.1-2.868,8.7,8.7,0,0,1,2.84-2.032c1.03,0.145,2.11.249,3.22,0.311l3.31,0.186c1.08,0.062,2.11.15,3.08,0.263a11.316,11.316,0,0,1,2.56.574,4.338,4.338,0,0,1,1.75,1.116,2.627,2.627,0,0,1,.65,1.861A4.082,4.082,0,0,1,1473.18,547.429Zm-2.26-34.143a12.073,12.073,0,0,0-3.23-1.318,16.393,16.393,0,0,0-8.6.264,11.2,11.2,0,0,0-3.77,2.031,9.152,9.152,0,0,0-2.46,3.194,9.578,9.578,0,0,0,4.04,12.637,8.015,8.015,0,0,0-1.73,1.147,7.653,7.653,0,0,0-1.26,1.38,6,6,0,0,0-.76,1.458,4.252,4.252,0,0,0-.25,1.411,4.447,4.447,0,0,0,.82,2.806,5.744,5.744,0,0,0,2.22,1.659,10.1,10.1,0,0,0-4,2.574,5.671,5.671,0,0,0-1.46,3.938,6.287,6.287,0,0,0,.86,3.148,7.925,7.925,0,0,0,2.55,2.651,14.223,14.223,0,0,0,4.28,1.83,23.645,23.645,0,0,0,6.02.682,20.191,20.191,0,0,0,6.19-.883,14.9,14.9,0,0,0,4.63-2.357,10.565,10.565,0,0,0,2.9-3.365,8.235,8.235,0,0,0,1.01-3.907,6.236,6.236,0,0,0-.92-3.536,6.418,6.418,0,0,0-2.4-2.139,11.78,11.78,0,0,0-3.39-1.117,37.214,37.214,0,0,0-3.91-.48c-1.33-.093-2.64-0.16-3.91-0.2a25.694,25.694,0,0,1-3.39-.31,6.518,6.518,0,0,1-2.41-.822,1.866,1.866,0,0,1-.91-1.69,2.327,2.327,0,0,1,.52-1.411,5.754,5.754,0,0,1,1.52-1.318,15.933,15.933,0,0,0,4.16.527,14.972,14.972,0,0,0,4.71-.713,10.713,10.713,0,0,0,3.72-2.047,9.482,9.482,0,0,0,2.44-3.209,9.653,9.653,0,0,0,.88-4.171,9.775,9.775,0,0,0-1.05-4.528l3.56-.465a1.349,1.349,0,0,0,1.31-1.3v-2.047h-8.53Zm14.87,28.3a3.832,3.832,0,0,0,.8,1.225,3.65,3.65,0,0,0,1.23.822,4.063,4.063,0,0,0,3.04,0,3.794,3.794,0,0,0,1.24-.822,4.121,4.121,0,0,0,.84-1.225,3.916,3.916,0,0,0,0-3.054,3.943,3.943,0,0,0-2.08-2.078,3.881,3.881,0,0,0-3.04,0,3.874,3.874,0,0,0-1.23.837,3.8,3.8,0,0,0-.8,1.241A4.036,4.036,0,0,0,1485.79,541.583ZM969.672,628.719H974.5v-0.281l-8.016-14.485a10.273,10.273,0,0,0,4.793-3.539A9.188,9.188,0,0,0,973,604.86q0-5.016-3.106-7.641t-8.871-2.625h-11.3v34.125h4.524V614.914h8.015ZM954.25,598.274h6.89a7.989,7.989,0,0,1,5.45,1.714,6.189,6.189,0,0,1,1.886,4.86,5.875,5.875,0,0,1-1.98,4.649,7.8,7.8,0,0,1-5.332,1.738H954.25V598.274Zm24.666,17.836a13.731,13.731,0,0,0,3.2,9.492,10.671,10.671,0,0,0,8.356,3.586,11.229,11.229,0,0,0,6.059-1.641,10.729,10.729,0,0,0,4.05-4.582,15.042,15.042,0,0,0,1.42-6.644v-0.305q0-5.953-3.2-9.539a10.694,10.694,0,0,0-8.379-3.586,11.1,11.1,0,0,0-5.965,1.617,10.927,10.927,0,0,0-4.078,4.594,14.972,14.972,0,0,0-1.465,6.7v0.305Zm6.328-7.1a6.228,6.228,0,0,1,5.18-2.555,6.3,6.3,0,0,1,5.262,2.59,10.834,10.834,0,0,1,1.98,6.762q0,4.663-1.945,7.254a6.631,6.631,0,0,1-10.488.035,10.846,10.846,0,0,1-1.957-6.773Q983.276,611.563,985.244,609.008Zm45.106,6.938q0-6.071-2.64-9.563a8.583,8.583,0,0,0-7.25-3.492,8.783,8.783,0,0,0-7.24,3.258v-13.43h-4.34v36h3.98l0.21-2.93a8.844,8.844,0,0,0,7.43,3.4,8.55,8.55,0,0,0,7.18-3.528q2.67-3.527,2.67-9.339v-0.375Zm-6.07,7.148a5.645,5.645,0,0,1-4.85,2.414,6.528,6.528,0,0,1-6.21-3.984V610.555a6.36,6.36,0,0,1,6.16-3.984,5.659,5.659,0,0,1,4.92,2.414,11.719,11.719,0,0,1,1.71,6.843Q1026.01,620.68,1024.28,623.094Zm11.82-6.984a13.741,13.741,0,0,0,3.2,9.492,10.672,10.672,0,0,0,8.36,3.586,11.181,11.181,0,0,0,6.05-1.641,10.79,10.79,0,0,0,4.06-4.582,15.181,15.181,0,0,0,1.42-6.644v-0.305q0-5.953-3.2-9.539a10.71,10.71,0,0,0-8.38-3.586,11.125,11.125,0,0,0-5.97,1.617,10.883,10.883,0,0,0-4.07,4.594,14.934,14.934,0,0,0-1.47,6.7v0.305Zm6.33-7.1a6.225,6.225,0,0,1,5.18-2.555,6.291,6.291,0,0,1,5.26,2.59,10.834,10.834,0,0,1,1.98,6.762,11.912,11.912,0,0,1-1.94,7.254,6.633,6.633,0,0,1-10.49.035,10.816,10.816,0,0,1-1.96-6.773Q1040.46,611.563,1042.43,609.008Zm25.18-11.789v6.141h-4.62v3.351h4.62v15.727a7.521,7.521,0,0,0,1.48,4.992,5.384,5.384,0,0,0,4.38,1.758,12.667,12.667,0,0,0,3.33-.466v-3.5a10.559,10.559,0,0,1-2.06.281,2.665,2.665,0,0,1-2.16-.762,3.535,3.535,0,0,1-.63-2.289V606.711h4.73V603.36h-4.73v-6.141h-4.34Zm13.96,18.891q0,5.905,3.2,9.492a10.651,10.651,0,0,0,8.35,3.586,11.24,11.24,0,0,0,6.06-1.641,10.7,10.7,0,0,0,4.05-4.582,15.042,15.042,0,0,0,1.42-6.644v-0.305q0-5.953-3.2-9.539a10.682,10.682,0,0,0-8.38-3.586,11.091,11.091,0,0,0-5.96,1.617,10.971,10.971,0,0,0-4.08,4.594,15.065,15.065,0,0,0-1.46,6.7v0.305Zm6.32-7.1a6.238,6.238,0,0,1,5.18-2.555,6.309,6.309,0,0,1,5.27,2.59,10.834,10.834,0,0,1,1.98,6.762q0,4.663-1.95,7.254a6.633,6.633,0,0,1-10.49.035,10.876,10.876,0,0,1-1.95-6.773Q1085.93,611.563,1087.89,609.008Zm49.22-5.789a4.436,4.436,0,0,0-1.92-.328,6.755,6.755,0,0,0-6.05,3.4l-0.07-2.929h-4.22v25.359h4.34v-18a5.705,5.705,0,0,1,5.79-3.633,13.083,13.083,0,0,1,2.13.164v-4.031Zm25.07,21.07-2.65-2.062a9.857,9.857,0,0,1-2.79,2.484,7.546,7.546,0,0,1-3.89.938,6.867,6.867,0,0,1-5.33-2.309,9.048,9.048,0,0,1-2.2-6.059h17.18v-1.8q0-6.071-2.74-9.328a9.5,9.5,0,0,0-7.69-3.258,10.148,10.148,0,0,0-5.61,1.676,11.211,11.211,0,0,0-4.03,4.64,15.233,15.233,0,0,0-1.44,6.739v0.8a12.594,12.594,0,0,0,3.23,9.059,11.1,11.1,0,0,0,8.39,3.387q6.375,0,9.57-4.9h0Zm-5.79-16.019a8.3,8.3,0,0,1,1.78,5.121v0.328h-12.71a9.326,9.326,0,0,1,2.21-5.355,5.773,5.773,0,0,1,4.4-1.911A5.461,5.461,0,0,1,1156.39,608.27Zm14.29,17.332a8.673,8.673,0,0,0,7.21,3.586,8.9,8.9,0,0,0,7.1-3v2.179a6.808,6.808,0,0,1-1.77,5.016,6.636,6.636,0,0,1-4.93,1.781,8.475,8.475,0,0,1-6.82-3.445l-2.25,2.6a9.234,9.234,0,0,0,4.01,3.21,12.992,12.992,0,0,0,5.36,1.172,10.761,10.761,0,0,0,7.84-2.836,10.3,10.3,0,0,0,2.92-7.757V603.36h-3.96l-0.21,2.812a9.456,9.456,0,0,0-14.51.223q-2.745,3.5-2.74,9.433Q1167.93,622.016,1170.68,625.6Zm3.39-16.571a5.757,5.757,0,0,1,4.94-2.46,6.429,6.429,0,0,1,5.98,3.632v11.578a6.349,6.349,0,0,1-6.02,3.727,5.7,5.7,0,0,1-4.92-2.449,11.312,11.312,0,0,1-1.76-6.738Q1172.29,611.493,1174.07,609.031Zm24.02,19.219a2.59,2.59,0,0,0,2,.727,2.661,2.661,0,0,0,2.03-.727,2.518,2.518,0,0,0,.69-1.8,2.664,2.664,0,0,0-.69-1.875,2.613,2.613,0,0,0-2.03-.75,2.544,2.544,0,0,0-2,.75,2.742,2.742,0,0,0-.67,1.875A2.59,2.59,0,0,0,1198.09,628.25Zm77.11,0.469h7.55v-0.328l-7.38-13.945a10.3,10.3,0,0,0,4.58-3.715,10.482,10.482,0,0,0,1.51-5.825,9.294,9.294,0,0,0-3.28-7.617q-3.285-2.694-9.33-2.695h-12.68v34.125h7.03V616.227h5.61Zm-12-28.43h5.65a5.7,5.7,0,0,1,4.21,1.383,5.173,5.173,0,0,1,1.37,3.8,4.812,4.812,0,0,1-1.45,3.715,5.816,5.816,0,0,1-4.1,1.347h-5.68V600.289Zm24.51,15.821q0,6.046,3.27,9.562a12.618,12.618,0,0,0,17.49-.012,13.262,13.262,0,0,0,3.26-9.363l-0.05-1.734a12.579,12.579,0,0,0-3.62-8.532,11.549,11.549,0,0,0-8.38-3.14,12.222,12.222,0,0,0-6.34,1.617,10.642,10.642,0,0,0-4.18,4.57,15.023,15.023,0,0,0-1.45,6.727v0.305Zm8.13-5.822a4.427,4.427,0,0,1,3.84-1.936,4.493,4.493,0,0,1,3.89,1.948,9.324,9.324,0,0,1,1.39,5.493q0,4.155-1.39,6.044a4.879,4.879,0,0,1-7.73-.023,9.45,9.45,0,0,1-1.36-5.528Q1294.48,612.226,1295.84,610.288Zm45.31,5.611q0-6.187-2.63-9.6a8.7,8.7,0,0,0-7.28-3.41,7.7,7.7,0,0,0-6.16,2.742V592.719h-6.78v36h6.1l0.3-2.7a7.925,7.925,0,0,0,6.59,3.164,8.6,8.6,0,0,0,7.26-3.41q2.61-3.411,2.6-9.5V615.9Zm-7.26,4.584a4.189,4.189,0,0,1-4.31,3.244,4.512,4.512,0,0,1-4.5-2.68V611.008a4.457,4.457,0,0,1,4.45-2.656,4.109,4.109,0,0,1,3.63,1.775q1.215,1.774,1.22,5.63a16.738,16.738,0,0,1-.49,4.726h0Zm12.78-4.373q0,6.046,3.27,9.562a12.63,12.63,0,0,0,17.5-.012,13.257,13.257,0,0,0,3.25-9.363l-0.04-1.734a12.624,12.624,0,0,0-3.62-8.532,11.566,11.566,0,0,0-8.38-3.14,12.2,12.2,0,0,0-6.34,1.617,10.664,10.664,0,0,0-4.19,4.57,15.023,15.023,0,0,0-1.45,6.727v0.305Zm8.13-5.822a4.432,4.432,0,0,1,3.85-1.936,4.493,4.493,0,0,1,3.89,1.948,9.4,9.4,0,0,1,1.38,5.493q0,4.155-1.38,6.044a4.889,4.889,0,0,1-7.74-.023,9.526,9.526,0,0,1-1.36-5.528C1353.44,613.579,1353.9,611.58,1354.8,610.288Zm23.8-13.163v6.235h-3.7v4.968h3.7v13.664q0.15,7.2,7.27,7.2a13.983,13.983,0,0,0,4.1-.61v-5.132a10.824,10.824,0,0,1-1.99.164,2.718,2.718,0,0,1-2.07-.61,3.02,3.02,0,0,1-.53-2.015V608.328h4.33V603.36h-4.33v-6.235h-6.78Zm15.53,18.985q0,6.046,3.27,9.562a12.618,12.618,0,0,0,17.49-.012,13.262,13.262,0,0,0,3.26-9.363l-0.05-1.734a12.579,12.579,0,0,0-3.62-8.532,11.533,11.533,0,0,0-8.38-3.14,12.222,12.222,0,0,0-6.34,1.617,10.642,10.642,0,0,0-4.18,4.57,15.023,15.023,0,0,0-1.45,6.727v0.305Zm8.13-5.822a4.427,4.427,0,0,1,3.84-1.936,4.493,4.493,0,0,1,3.89,1.948,9.324,9.324,0,0,1,1.39,5.493q0,4.155-1.39,6.044a4.879,4.879,0,0,1-7.73-.023,9.45,9.45,0,0,1-1.36-5.528Q1400.9,612.226,1402.26,610.288Zm59.67,5.611q0-6.187-2.64-9.6a8.69,8.69,0,0,0-7.28-3.41,7.712,7.712,0,0,0-6.16,2.742V592.719h-6.77v36h6.09l0.3-2.7a7.925,7.925,0,0,0,6.59,3.164,8.633,8.633,0,0,0,7.27-3.41q2.6-3.411,2.6-9.5V615.9Zm-7.27,4.584a4.181,4.181,0,0,1-4.31,3.244,4.53,4.53,0,0,1-4.5-2.68V611.008a4.465,4.465,0,0,1,4.45-2.656,4.109,4.109,0,0,1,3.63,1.775c0.82,1.183,1.22,3.06,1.22,5.63a16.738,16.738,0,0,1-.49,4.726h0Zm12.78-4.373q0,6.046,3.27,9.562a12.63,12.63,0,0,0,17.5-.012,13.262,13.262,0,0,0,3.26-9.363l-0.05-1.734a12.624,12.624,0,0,0-3.62-8.532,11.566,11.566,0,0,0-8.38-3.14,12.2,12.2,0,0,0-6.34,1.617,10.642,10.642,0,0,0-4.18,4.57,15.026,15.026,0,0,0-1.46,6.727v0.305Zm8.14-5.822a4.4,4.4,0,0,1,3.84-1.936,4.493,4.493,0,0,1,3.89,1.948,9.4,9.4,0,0,1,1.38,5.493q0,4.155-1.38,6.044a4.879,4.879,0,0,1-7.73-.023,9.45,9.45,0,0,1-1.36-5.528Q1474.22,612.226,1475.58,610.288Zm29.61-17.569h-6.8v36h6.8v-36Zm9.63,32.941a8.6,8.6,0,0,0,7.18,3.528,7.978,7.978,0,0,0,6.52-3.164l0.33,2.7h6.11v-36h-6.79v12.937a7.774,7.774,0,0,0-6.12-2.765,8.631,8.631,0,0,0-7.28,3.515q-2.655,3.516-2.66,9.446Q1512.11,622.132,1514.82,625.66Zm8.96-17.308a4.48,4.48,0,0,1,4.39,2.66v10.054a4.535,4.535,0,0,1-4.43,2.661,4.034,4.034,0,0,1-3.61-1.907,10.046,10.046,0,0,1-1.25-5.486q0-7.981,4.9-7.982h0Z" transform="translate(-949.281 -498.344)"/>
</svg>
