<svg xmlns="http://www.w3.org/2000/svg" width="585.251" height="102.719" viewBox="0 0 585.251 102.719">
  <defs>
    <style>
      .cls-1 {
        fill: #fff;
        fill-rule: evenodd;
      }
    </style>
  </defs>
  <path id="Roboto_bold" data-name="Roboto bold" class="cls-1" d="M960.044,519h2.694v-0.165l-3.856-8.462a5.139,5.139,0,0,0,2.3-2.072,6.2,6.2,0,0,0,.813-3.219,6.1,6.1,0,0,0-1.5-4.464,5.957,5.957,0,0,0-4.429-1.525h-5.578V519H953v-8.053h3.5ZM953,501.241h3.008q3.473,0,3.473,3.835a3.841,3.841,0,0,1-.937,2.712,3.248,3.248,0,0,1-2.509,1.013H953v-7.56Zm12.058,11.293a7.547,7.547,0,0,0,1.607,4.922,5.564,5.564,0,0,0,8.278-.055,7.709,7.709,0,0,0,1.559-5.086v-1.559a7.593,7.593,0,0,0-1.607-4.99,5.172,5.172,0,0,0-4.135-1.832,5.116,5.116,0,0,0-4.136,1.88,7.733,7.733,0,0,0-1.566,5.106v1.614Zm2.42-1.627a6.279,6.279,0,0,1,.9-3.575,2.755,2.755,0,0,1,2.386-1.32,2.794,2.794,0,0,1,2.419,1.32,6.266,6.266,0,0,1,.9,3.588v1.668q-0.1,4.621-3.3,4.622a2.787,2.787,0,0,1-2.413-1.306,6.268,6.268,0,0,1-.9-3.589v-1.408Zm23.42-.055a9.1,9.1,0,0,0-1.231-5.195,4.173,4.173,0,0,0-3.65-1.723,3.8,3.8,0,0,0-3.418,1.9V498H980.2v21h2.2l0.123-1.75a3.825,3.825,0,0,0,3.527,2.023,4.151,4.151,0,0,0,3.609-1.75,8.98,8.98,0,0,0,1.245-5.209v-1.463Zm-2.407,1.564a7.025,7.025,0,0,1-.724,3.565,2.553,2.553,0,0,1-2.352,1.147,2.963,2.963,0,0,1-2.816-1.994V508.1a2.964,2.964,0,0,1,2.789-2.021,2.628,2.628,0,0,1,2.372,1.113,7.1,7.1,0,0,1,.731,3.734v1.488Zm5.551,0.118a7.542,7.542,0,0,0,1.606,4.922,5.566,5.566,0,0,0,8.279-.055,7.7,7.7,0,0,0,1.56-5.086v-1.559a7.573,7.573,0,0,0-1.61-4.99,5.534,5.534,0,0,0-8.27.048,7.733,7.733,0,0,0-1.565,5.106v1.614Zm2.42-1.627a6.279,6.279,0,0,1,.895-3.575,2.755,2.755,0,0,1,2.386-1.32,2.809,2.809,0,0,1,2.424,1.32,6.282,6.282,0,0,1,.9,3.588v1.668c-0.07,3.081-1.16,4.622-3.3,4.622a2.787,2.787,0,0,1-2.413-1.306,6.268,6.268,0,0,1-.895-3.589v-1.408Zm13.465-10.281v3.582h-2.26v1.955h2.26v9.187a4.844,4.844,0,0,0,.75,2.9,2.545,2.545,0,0,0,2.19,1.025,5.3,5.3,0,0,0,1.68-.272l0.03-2.039a3.041,3.041,0,0,1-.97.165,1.089,1.089,0,0,1-.99-0.452,2.517,2.517,0,0,1-.28-1.328v-9.185h2.23v-1.955h-2.23v-3.582h-2.41Zm7.29,11.908a7.534,7.534,0,0,0,1.6,4.922,5.567,5.567,0,0,0,8.28-.055,7.7,7.7,0,0,0,1.56-5.086v-1.559a7.573,7.573,0,0,0-1.61-4.99,5.534,5.534,0,0,0-8.27.048,7.753,7.753,0,0,0-1.56,5.106v1.614Zm2.42-1.627a6.335,6.335,0,0,1,.89-3.575,2.758,2.758,0,0,1,2.39-1.32,2.8,2.8,0,0,1,2.42,1.32,6.282,6.282,0,0,1,.9,3.588v1.668q-0.09,4.621-3.29,4.622a2.792,2.792,0,0,1-2.42-1.306,6.325,6.325,0,0,1-.89-3.589v-1.408Zm22.37,5.222a6.622,6.622,0,0,1-.77-3.691v-1.887a6.126,6.126,0,0,1,.8-3.479,2.785,2.785,0,0,1,2.4-1.06,2.435,2.435,0,0,1,1.95.821,4.046,4.046,0,0,1,.78,2.461h2.28a5.807,5.807,0,0,0-1.41-3.924,4.679,4.679,0,0,0-3.6-1.436,5.114,5.114,0,0,0-4.19,1.743,7.884,7.884,0,0,0-1.43,5.093V512.4a7.89,7.89,0,0,0,1.44,5.148,5.146,5.146,0,0,0,4.19,1.729,4.783,4.783,0,0,0,3.49-1.4,4.982,4.982,0,0,0,1.51-3.535h-2.28a3.146,3.146,0,0,1-.79,2.126,2.569,2.569,0,0,1-1.93.746A2.8,2.8,0,0,1,1042.01,516.129Zm10.29-3.6a7.534,7.534,0,0,0,1.6,4.922,5.567,5.567,0,0,0,8.28-.055,7.7,7.7,0,0,0,1.56-5.086v-1.559a7.573,7.573,0,0,0-1.61-4.99,5.534,5.534,0,0,0-8.27.048,7.753,7.753,0,0,0-1.56,5.106v1.614Zm2.42-1.627a6.335,6.335,0,0,1,.89-3.575,2.851,2.851,0,0,1,4.81,0,6.282,6.282,0,0,1,.9,3.588v1.668q-0.09,4.621-3.29,4.622a2.792,2.792,0,0,1-2.42-1.306,6.325,6.325,0,0,1-.89-3.589v-1.408Zm12.7-6.7V519h2.42V508.254a4.286,4.286,0,0,1,1.15-1.572,2.461,2.461,0,0,1,1.62-.6,2.1,2.1,0,0,1,1.75.731,4.084,4.084,0,0,1,.58,2.468V519h2.4V509.17c-0.03-3.49-1.36-5.236-3.97-5.236a4.326,4.326,0,0,0-3.6,1.873l-0.07-1.6h-2.28Zm13.6,8.244a8.557,8.557,0,0,0,1.33,5.038,4.233,4.233,0,0,0,3.61,1.784,3.806,3.806,0,0,0,3.4-1.859l0.12,1.586h2.22V498h-2.42v7.656a3.8,3.8,0,0,0-3.31-1.723,4.237,4.237,0,0,0-3.67,1.791,8.931,8.931,0,0,0-1.28,5.209v1.518Zm2.42-1.62a6.956,6.956,0,0,1,.75-3.584,2.648,2.648,0,0,1,2.41-1.167,2.906,2.906,0,0,1,2.68,1.775v7.456a2.861,2.861,0,0,1-2.69,1.816,2.625,2.625,0,0,1-2.41-1.168,7.034,7.034,0,0,1-.74-3.653v-1.475ZM1106.11,519v-0.219a9.051,9.051,0,0,1-.47-2.967V508.35a4.377,4.377,0,0,0-1.21-3.288,4.8,4.8,0,0,0-3.45-1.128,5.427,5.427,0,0,0-2.53.588,4.653,4.653,0,0,0-1.8,1.62,3.893,3.893,0,0,0-.67,2.167h2.42a2.192,2.192,0,0,1,.68-1.647,2.936,2.936,0,0,1,3.57-.089,2.538,2.538,0,0,1,.59,1.887v1.572h-1.78a6.3,6.3,0,0,0-4.2,1.353,4.5,4.5,0,0,0-1.53,3.582,4.307,4.307,0,0,0,1.13,3.179,4.243,4.243,0,0,0,3.14,1.128,3.845,3.845,0,0,0,3.28-1.887,5.418,5.418,0,0,0,.31,1.614h2.52Zm-7.45-2.5a2.687,2.687,0,0,1-.51-1.825,2.443,2.443,0,0,1,1-2.085,4.565,4.565,0,0,1,2.72-.772h1.37v3.527a3.059,3.059,0,0,1-1.18,1.231,3.2,3.2,0,0,1-1.69.492A2.176,2.176,0,0,1,1098.66,516.505Zm11.29-12.3V519h2.42V508.254a4.4,4.4,0,0,1,1.15-1.572,2.467,2.467,0,0,1,1.63-.6,2.1,2.1,0,0,1,1.74.731,4.014,4.014,0,0,1,.58,2.468V519h2.41V509.17q-0.06-5.235-3.98-5.236a4.326,4.326,0,0,0-3.6,1.873l-0.07-1.6h-2.28Zm16.81,11.921a6.537,6.537,0,0,1-.77-3.691v-1.887a6.045,6.045,0,0,1,.8-3.479,2.785,2.785,0,0,1,2.4-1.06,2.428,2.428,0,0,1,1.94.821,3.983,3.983,0,0,1,.79,2.461h2.28a5.807,5.807,0,0,0-1.41-3.924,4.679,4.679,0,0,0-3.6-1.436,5.114,5.114,0,0,0-4.19,1.743,7.826,7.826,0,0,0-1.43,5.093V512.4a7.89,7.89,0,0,0,1.44,5.148,5.146,5.146,0,0,0,4.19,1.729,4.783,4.783,0,0,0,3.49-1.4,5.023,5.023,0,0,0,1.51-3.535h-2.28a3.2,3.2,0,0,1-.79,2.126,2.585,2.585,0,0,1-1.93.746A2.788,2.788,0,0,1,1126.76,516.129Zm20.88,0.93-1.26-1.531a4.646,4.646,0,0,1-1.52,1.278,4.175,4.175,0,0,1-1.88.4,3.167,3.167,0,0,1-2.58-1.081,5.44,5.44,0,0,1-.89-3.459v-0.341h8.26v-1.586a8.492,8.492,0,0,0-1.32-5.155,4.6,4.6,0,0,0-3.88-1.654,4.8,4.8,0,0,0-4.03,1.88A8.348,8.348,0,0,0,1137.1,511v1.791a7.154,7.154,0,0,0,1.5,4.833,5.41,5.41,0,0,0,4.24,1.647,5.494,5.494,0,0,0,4.8-2.215h0Zm-3.05-10.144a5.726,5.726,0,0,1,.76,3.007v0.329h-5.83a6.117,6.117,0,0,1,.82-3.206,2.538,2.538,0,0,1,2.23-1.033A2.357,2.357,0,0,1,1144.59,506.915Zm6.13,5.537a8.557,8.557,0,0,0,1.33,5.038,4.215,4.215,0,0,0,3.6,1.784,3.823,3.823,0,0,0,3.41-1.859l0.12,1.586h2.22V498h-2.42v7.656a3.812,3.812,0,0,0-3.31-1.723,4.225,4.225,0,0,0-3.67,1.791,8.856,8.856,0,0,0-1.28,5.209v1.518Zm2.42-1.62a6.956,6.956,0,0,1,.75-3.584,2.626,2.626,0,0,1,2.41-1.167,2.916,2.916,0,0,1,2.68,1.775v7.456a2.874,2.874,0,0,1-2.7,1.816,2.618,2.618,0,0,1-2.4-1.168,6.935,6.935,0,0,1-.74-3.653v-1.475Zm25.6-6.706a2.086,2.086,0,0,0-.95-0.192,3.012,3.012,0,0,0-2.75,1.777l-0.04-1.5h-2.35V519h2.42V508.419a2.646,2.646,0,0,1,2.59-2.038,5.9,5.9,0,0,1,1.1.1Zm12.81,12.933-1.25-1.531a4.777,4.777,0,0,1-1.53,1.278,4.175,4.175,0,0,1-1.88.4,3.167,3.167,0,0,1-2.58-1.081,5.44,5.44,0,0,1-.89-3.459v-0.341h8.26v-1.586a8.492,8.492,0,0,0-1.32-5.155,4.6,4.6,0,0,0-3.88-1.654,4.776,4.776,0,0,0-4.02,1.88,8.285,8.285,0,0,0-1.45,5.189v1.791a7.1,7.1,0,0,0,1.51,4.833,5.382,5.382,0,0,0,4.24,1.647,5.464,5.464,0,0,0,4.79-2.215h0Zm-3.05-10.144a5.726,5.726,0,0,1,.76,3.007v0.329h-5.83a6.214,6.214,0,0,1,.82-3.206,2.55,2.55,0,0,1,2.23-1.033A2.345,2.345,0,0,1,1188.5,506.915Zm6.16,5.66a8.408,8.408,0,0,0,1.34,4.97,4.2,4.2,0,0,0,3.58,1.729,3.781,3.781,0,0,0,3.33-1.736v1.927q-0.075,3.3-3.1,3.295a4.647,4.647,0,0,1-3.32-1.476l-0.99,1.668a5.2,5.2,0,0,0,2.05,1.333,6.728,6.728,0,0,0,2.45.54,5.188,5.188,0,0,0,3.93-1.47,5.851,5.851,0,0,0,1.4-4.218V504.208h-2.18l-0.13,1.654a3.769,3.769,0,0,0-3.43-1.928,4.235,4.235,0,0,0-3.68,1.771,9.077,9.077,0,0,0-1.25,5.229v1.641Zm2.42-1.743a6.956,6.956,0,0,1,.75-3.584,2.62,2.62,0,0,1,2.4-1.167,2.914,2.914,0,0,1,2.68,1.816v7.387a2.882,2.882,0,0,1-2.7,1.844,2.618,2.618,0,0,1-2.4-1.168,7.046,7.046,0,0,1-.73-3.653v-1.475Zm12.96,7.895a1.512,1.512,0,0,0,1.17.424,1.574,1.574,0,0,0,1.19-.424,1.5,1.5,0,0,0,.4-1.053,1.588,1.588,0,0,0-.4-1.093,1.546,1.546,0,0,0-1.19-.438,1.486,1.486,0,0,0-1.17.438,1.581,1.581,0,0,0-.39,1.093A1.494,1.494,0,0,0,1210.04,518.727Zm55,0.274h2.7v-0.165l-3.86-8.462a5.164,5.164,0,0,0,2.31-2.072,6.222,6.222,0,0,0,.81-3.219,6.109,6.109,0,0,0-1.5-4.464,5.972,5.972,0,0,0-4.43-1.525h-5.58V519H1258v-8.053h3.5Zm-7.04-17.76h3.01c2.32,0,3.47,1.278,3.47,3.835a3.856,3.856,0,0,1-.93,2.712,3.258,3.258,0,0,1-2.51,1.013H1258v-7.56Zm12.62,11.293a7.538,7.538,0,0,0,1.61,4.922,5.567,5.567,0,0,0,8.28-.055,7.7,7.7,0,0,0,1.55-5.086v-1.559a7.569,7.569,0,0,0-1.6-4.99,5.182,5.182,0,0,0-4.14-1.832,5.105,5.105,0,0,0-4.13,1.88,7.7,7.7,0,0,0-1.57,5.106v1.614Zm2.42-1.627a6.255,6.255,0,0,1,.9-3.575,2.742,2.742,0,0,1,2.38-1.32,2.8,2.8,0,0,1,2.42,1.32,6.282,6.282,0,0,1,.9,3.588v1.668q-0.09,4.621-3.29,4.622a2.776,2.776,0,0,1-2.41-1.306,6.244,6.244,0,0,1-.9-3.589v-1.408Zm23.98-.055a9.112,9.112,0,0,0-1.23-5.195,4.174,4.174,0,0,0-3.65-1.723,3.8,3.8,0,0,0-3.42,1.9V498h-2.4v21h2.2l0.12-1.75a3.823,3.823,0,0,0,3.53,2.023,4.162,4.162,0,0,0,3.61-1.75,8.982,8.982,0,0,0,1.24-5.209v-1.463Zm-2.41,1.564a6.978,6.978,0,0,1-.72,3.565,2.549,2.549,0,0,1-2.35,1.147,2.963,2.963,0,0,1-2.82-1.994V508.1a2.964,2.964,0,0,1,2.79-2.021,2.62,2.62,0,0,1,2.37,1.113,7.072,7.072,0,0,1,.73,3.734v1.488Zm6.11,0.118a7.593,7.593,0,0,0,1.61,4.922,5.567,5.567,0,0,0,8.28-.055,7.7,7.7,0,0,0,1.56-5.086v-1.559a7.573,7.573,0,0,0-1.61-4.99,5.534,5.534,0,0,0-8.27.048,7.756,7.756,0,0,0-1.57,5.106v1.614Zm2.42-1.627a6.255,6.255,0,0,1,.9-3.575,2.758,2.758,0,0,1,2.39-1.32,2.807,2.807,0,0,1,2.42,1.32,6.282,6.282,0,0,1,.9,3.588v1.668c-0.07,3.081-1.16,4.622-3.3,4.622a2.788,2.788,0,0,1-2.41-1.306,6.244,6.244,0,0,1-.9-3.589v-1.408Zm14.03-10.281v3.582h-2.26v1.955h2.26v9.187a4.844,4.844,0,0,0,.75,2.9,2.545,2.545,0,0,0,2.19,1.025,5.3,5.3,0,0,0,1.68-.272l0.03-2.039a3.041,3.041,0,0,1-.97.165,1.089,1.089,0,0,1-.99-0.452,2.517,2.517,0,0,1-.28-1.328v-9.185h2.23v-1.955h-2.23v-3.582h-2.41Zm7.85,11.908a7.534,7.534,0,0,0,1.6,4.922,5.567,5.567,0,0,0,8.28-.055,7.7,7.7,0,0,0,1.56-5.086v-1.559a7.573,7.573,0,0,0-1.61-4.99,5.534,5.534,0,0,0-8.27.048,7.753,7.753,0,0,0-1.56,5.106v1.614Zm2.42-1.627a6.335,6.335,0,0,1,.89-3.575,2.758,2.758,0,0,1,2.39-1.32,2.8,2.8,0,0,1,2.42,1.32,6.282,6.282,0,0,1,.9,3.588v1.668q-0.09,4.621-3.29,4.622a2.792,2.792,0,0,1-2.42-1.306,6.325,6.325,0,0,1-.89-3.589v-1.408Zm23.49,5.222a6.622,6.622,0,0,1-.77-3.691v-1.887a6.126,6.126,0,0,1,.8-3.479,2.785,2.785,0,0,1,2.4-1.06,2.435,2.435,0,0,1,1.95.821,4.046,4.046,0,0,1,.78,2.461h2.28a5.807,5.807,0,0,0-1.41-3.924,4.679,4.679,0,0,0-3.6-1.436,5.114,5.114,0,0,0-4.19,1.743,7.884,7.884,0,0,0-1.43,5.093V512.4a7.89,7.89,0,0,0,1.44,5.148,5.146,5.146,0,0,0,4.19,1.729,4.783,4.783,0,0,0,3.49-1.4,4.982,4.982,0,0,0,1.51-3.535h-2.28a3.146,3.146,0,0,1-.79,2.126,2.569,2.569,0,0,1-1.93.746A2.8,2.8,0,0,1,1350.93,516.129Zm10.85-3.6a7.534,7.534,0,0,0,1.6,4.922,5.567,5.567,0,0,0,8.28-.055,7.7,7.7,0,0,0,1.56-5.086v-1.559a7.573,7.573,0,0,0-1.61-4.99,5.534,5.534,0,0,0-8.27.048,7.753,7.753,0,0,0-1.56,5.106v1.614Zm2.42-1.627a6.335,6.335,0,0,1,.89-3.575,2.851,2.851,0,0,1,4.81,0,6.282,6.282,0,0,1,.9,3.588v1.668q-0.09,4.621-3.29,4.622a2.792,2.792,0,0,1-2.42-1.306,6.325,6.325,0,0,1-.89-3.589v-1.408Zm13.26-6.7V519h2.42V508.254a4.286,4.286,0,0,1,1.15-1.572,2.461,2.461,0,0,1,1.62-.6,2.1,2.1,0,0,1,1.75.731,4.084,4.084,0,0,1,.58,2.468V519h2.4V509.17c-0.03-3.49-1.36-5.236-3.97-5.236a4.326,4.326,0,0,0-3.6,1.873l-0.07-1.6h-2.28Zm14.16,8.244a8.557,8.557,0,0,0,1.33,5.038,4.233,4.233,0,0,0,3.61,1.784,3.806,3.806,0,0,0,3.4-1.859l0.12,1.586h2.22V498h-2.42v7.656a3.8,3.8,0,0,0-3.31-1.723,4.237,4.237,0,0,0-3.67,1.791,8.931,8.931,0,0,0-1.28,5.209v1.518Zm2.42-1.62a6.956,6.956,0,0,1,.75-3.584,2.648,2.648,0,0,1,2.41-1.167,2.906,2.906,0,0,1,2.68,1.775v7.456a2.861,2.861,0,0,1-2.69,1.816,2.625,2.625,0,0,1-2.41-1.168,7.034,7.034,0,0,1-.74-3.653v-1.475ZM1417.27,519v-0.219a9.051,9.051,0,0,1-.47-2.967V508.35a4.377,4.377,0,0,0-1.21-3.288,4.8,4.8,0,0,0-3.45-1.128,5.427,5.427,0,0,0-2.53.588,4.653,4.653,0,0,0-1.8,1.62,3.893,3.893,0,0,0-.67,2.167h2.42a2.192,2.192,0,0,1,.68-1.647,2.936,2.936,0,0,1,3.57-.089,2.538,2.538,0,0,1,.59,1.887v1.572h-1.78a6.3,6.3,0,0,0-4.2,1.353,4.5,4.5,0,0,0-1.53,3.582,4.307,4.307,0,0,0,1.13,3.179,4.243,4.243,0,0,0,3.14,1.128,3.845,3.845,0,0,0,3.28-1.887,5.418,5.418,0,0,0,.31,1.614h2.52Zm-7.45-2.5a2.687,2.687,0,0,1-.51-1.825,2.443,2.443,0,0,1,1-2.085,4.565,4.565,0,0,1,2.72-.772h1.37v3.527a3.059,3.059,0,0,1-1.18,1.231,3.2,3.2,0,0,1-1.69.492A2.176,2.176,0,0,1,1409.82,516.505Zm11.85-12.3V519h2.42V508.254a4.4,4.4,0,0,1,1.15-1.572,2.467,2.467,0,0,1,1.63-.6,2.1,2.1,0,0,1,1.74.731,4.014,4.014,0,0,1,.58,2.468V519h2.41V509.17q-0.06-5.235-3.98-5.236a4.326,4.326,0,0,0-3.6,1.873l-0.07-1.6h-2.28Zm17.37,11.921a6.537,6.537,0,0,1-.77-3.691v-1.887a6.045,6.045,0,0,1,.8-3.479,2.785,2.785,0,0,1,2.4-1.06,2.428,2.428,0,0,1,1.94.821,3.983,3.983,0,0,1,.79,2.461h2.28a5.807,5.807,0,0,0-1.41-3.924,4.679,4.679,0,0,0-3.6-1.436,5.114,5.114,0,0,0-4.19,1.743,7.826,7.826,0,0,0-1.43,5.093V512.4a7.89,7.89,0,0,0,1.44,5.148,5.146,5.146,0,0,0,4.19,1.729,4.783,4.783,0,0,0,3.49-1.4,5.023,5.023,0,0,0,1.51-3.535h-2.28a3.2,3.2,0,0,1-.79,2.126,2.585,2.585,0,0,1-1.93.746A2.788,2.788,0,0,1,1439.04,516.129Zm21.44,0.93-1.26-1.531a4.646,4.646,0,0,1-1.52,1.278,4.175,4.175,0,0,1-1.88.4,3.167,3.167,0,0,1-2.58-1.081,5.44,5.44,0,0,1-.89-3.459v-0.341h8.26v-1.586a8.492,8.492,0,0,0-1.32-5.155,4.6,4.6,0,0,0-3.88-1.654,4.8,4.8,0,0,0-4.03,1.88,8.348,8.348,0,0,0-1.44,5.189v1.791a7.154,7.154,0,0,0,1.5,4.833,5.41,5.41,0,0,0,4.24,1.647,5.494,5.494,0,0,0,4.8-2.215h0Zm-3.05-10.144a5.726,5.726,0,0,1,.76,3.007v0.329h-5.83a6.117,6.117,0,0,1,.82-3.206,2.538,2.538,0,0,1,2.23-1.033A2.357,2.357,0,0,1,1457.43,506.915Zm6.69,5.537a8.557,8.557,0,0,0,1.33,5.038,4.215,4.215,0,0,0,3.6,1.784,3.823,3.823,0,0,0,3.41-1.859l0.12,1.586h2.22V498h-2.42v7.656a3.812,3.812,0,0,0-3.31-1.723,4.225,4.225,0,0,0-3.67,1.791,8.856,8.856,0,0,0-1.28,5.209v1.518Zm2.42-1.62a6.956,6.956,0,0,1,.75-3.584,2.626,2.626,0,0,1,2.41-1.167,2.916,2.916,0,0,1,2.68,1.775v7.456a2.874,2.874,0,0,1-2.7,1.816,2.618,2.618,0,0,1-2.4-1.168,6.935,6.935,0,0,1-.74-3.653v-1.475Zm31.34,0.02a8.955,8.955,0,0,0-1.23-5.195,4.162,4.162,0,0,0-3.65-1.723,3.792,3.792,0,0,0-3.41,1.9V498h-2.41v21h2.2l0.12-1.75a3.833,3.833,0,0,0,3.53,2.023,4.15,4.15,0,0,0,3.61-1.75,8.982,8.982,0,0,0,1.24-5.209v-1.463Zm-2.4,1.564a6.965,6.965,0,0,1-.73,3.565,2.539,2.539,0,0,1-2.35,1.147,2.96,2.96,0,0,1-2.81-1.994V508.1a2.964,2.964,0,0,1,2.79-2.021,2.631,2.631,0,0,1,2.37,1.113,7.172,7.172,0,0,1,.73,3.734v1.488Zm6.11,0.118a7.538,7.538,0,0,0,1.61,4.922,5.556,5.556,0,0,0,8.27-.055,7.7,7.7,0,0,0,1.56-5.086v-1.559a7.624,7.624,0,0,0-1.6-4.99,5.2,5.2,0,0,0-4.14-1.832,5.139,5.139,0,0,0-4.14,1.88,7.753,7.753,0,0,0-1.56,5.106v1.614Zm2.42-1.627a6.335,6.335,0,0,1,.89-3.575,2.851,2.851,0,0,1,4.81,0,6.282,6.282,0,0,1,.9,3.588v1.668q-0.09,4.621-3.29,4.622a2.8,2.8,0,0,1-2.42-1.306,6.325,6.325,0,0,1-.89-3.589v-1.408ZM1519.88,498h-2.42v21h2.42V498Zm4.42,14.451a8.484,8.484,0,0,0,1.33,5.038,4.215,4.215,0,0,0,3.6,1.784,3.823,3.823,0,0,0,3.41-1.859l0.12,1.586h2.21V498h-2.42v7.656a3.789,3.789,0,0,0-3.31-1.723,4.249,4.249,0,0,0-3.67,1.791,8.934,8.934,0,0,0-1.27,5.209v1.518Zm2.42-1.62a6.855,6.855,0,0,1,.75-3.584,2.62,2.62,0,0,1,2.4-1.167,2.906,2.906,0,0,1,2.68,1.775v7.456a2.861,2.861,0,0,1-2.69,1.816,2.646,2.646,0,0,1-2.41-1.168,7.046,7.046,0,0,1-.73-3.653v-1.475ZM969.672,590.719H974.5v-0.281l-8.016-14.485a10.273,10.273,0,0,0,4.793-3.539A9.188,9.188,0,0,0,973,566.86q0-5.016-3.106-7.641t-8.871-2.625h-11.3v34.125h4.524V576.914h8.015ZM954.25,560.274h6.89a7.989,7.989,0,0,1,5.45,1.714,6.189,6.189,0,0,1,1.886,4.86,5.875,5.875,0,0,1-1.98,4.649,7.8,7.8,0,0,1-5.332,1.738H954.25V560.274Zm25.482,17.836a13.731,13.731,0,0,0,3.2,9.492,10.671,10.671,0,0,0,8.356,3.586,11.229,11.229,0,0,0,6.059-1.641,10.8,10.8,0,0,0,4.054-4.582,15.042,15.042,0,0,0,1.42-6.644v-0.305q0-5.953-3.2-9.539a10.694,10.694,0,0,0-8.379-3.586,11.1,11.1,0,0,0-5.965,1.617A10.927,10.927,0,0,0,981.2,571.1a14.972,14.972,0,0,0-1.465,6.7v0.305Zm6.328-7.1a6.228,6.228,0,0,1,5.18-2.555,6.3,6.3,0,0,1,5.262,2.59,10.834,10.834,0,0,1,1.98,6.762q0,4.663-1.945,7.254a6.631,6.631,0,0,1-10.488.035,10.846,10.846,0,0,1-1.957-6.773Q984.092,573.563,986.06,571.008Zm45.92,6.938q0-6.071-2.64-9.563a8.57,8.57,0,0,0-7.25-3.492,8.783,8.783,0,0,0-7.24,3.258v-13.43h-4.34v36h3.99l0.21-2.93a8.832,8.832,0,0,0,7.43,3.4,8.532,8.532,0,0,0,7.17-3.528q2.67-3.527,2.67-9.339v-0.375Zm-6.07,7.148a5.633,5.633,0,0,1-4.85,2.414,6.547,6.547,0,0,1-6.21-3.984V572.555a6.36,6.36,0,0,1,6.16-3.984,5.659,5.659,0,0,1,4.92,2.414,11.719,11.719,0,0,1,1.71,6.843C1027.64,581.063,1027.07,583.485,1025.91,585.094Zm12.64-6.984a13.741,13.741,0,0,0,3.2,9.492,10.665,10.665,0,0,0,8.35,3.586,11.24,11.24,0,0,0,6.06-1.641,10.79,10.79,0,0,0,4.06-4.582,15.178,15.178,0,0,0,1.41-6.644v-0.305q0-5.953-3.19-9.539a10.71,10.71,0,0,0-8.38-3.586,11.1,11.1,0,0,0-5.97,1.617,10.971,10.971,0,0,0-4.08,4.594,15.065,15.065,0,0,0-1.46,6.7v0.305Zm6.33-7.1a6.225,6.225,0,0,1,5.18-2.555,6.3,6.3,0,0,1,5.26,2.59,10.834,10.834,0,0,1,1.98,6.762q0,4.663-1.95,7.254a6.623,6.623,0,0,1-10.48.035,10.816,10.816,0,0,1-1.96-6.773C1042.91,575.149,1043.56,572.711,1044.88,571.008Zm26-11.789v6.141h-4.62v3.351h4.62v15.727a7.575,7.575,0,0,0,1.47,4.992,5.411,5.411,0,0,0,4.38,1.758,12.667,12.667,0,0,0,3.33-.466v-3.5a10.465,10.465,0,0,1-2.06.281,2.678,2.678,0,0,1-2.16-.762,3.535,3.535,0,0,1-.63-2.289V568.711h4.74V565.36h-4.74v-6.141h-4.33Zm14.77,18.891q0,5.905,3.2,9.492a10.651,10.651,0,0,0,8.35,3.586,11.24,11.24,0,0,0,6.06-1.641,10.7,10.7,0,0,0,4.05-4.582,15.042,15.042,0,0,0,1.42-6.644v-0.305q0-5.953-3.2-9.539a10.682,10.682,0,0,0-8.38-3.586,11.091,11.091,0,0,0-5.96,1.617,10.971,10.971,0,0,0-4.08,4.594,15.065,15.065,0,0,0-1.46,6.7v0.305Zm6.32-7.1a6.238,6.238,0,0,1,5.18-2.555,6.309,6.309,0,0,1,5.27,2.59,10.834,10.834,0,0,1,1.98,6.762q0,4.663-1.95,7.254a6.633,6.633,0,0,1-10.49.035,10.876,10.876,0,0,1-1.95-6.773Q1090.01,573.563,1091.97,571.008Zm50.85-5.789a4.406,4.406,0,0,0-1.92-.328,6.766,6.766,0,0,0-6.05,3.4l-0.07-2.929h-4.21v25.359h4.33v-18a5.722,5.722,0,0,1,5.79-3.633,12.907,12.907,0,0,1,2.13.164v-4.031Zm25.88,21.07-2.64-2.062a9.857,9.857,0,0,1-2.79,2.484,7.572,7.572,0,0,1-3.89.938,6.9,6.9,0,0,1-5.34-2.309,9.042,9.042,0,0,1-2.19-6.059h17.18v-1.8q0-6.071-2.74-9.328a9.5,9.5,0,0,0-7.69-3.258,10.148,10.148,0,0,0-5.61,1.676,11.211,11.211,0,0,0-4.03,4.64,15.233,15.233,0,0,0-1.44,6.739v0.8a12.552,12.552,0,0,0,3.23,9.059,11.08,11.08,0,0,0,8.39,3.387q6.375,0,9.56-4.9h0Zm-5.79-16.019a8.246,8.246,0,0,1,1.79,5.121v0.328h-12.71a9.26,9.26,0,0,1,2.21-5.355,5.758,5.758,0,0,1,4.4-1.911A5.44,5.44,0,0,1,1162.91,570.27Zm15.12,17.332a8.642,8.642,0,0,0,7.2,3.586,8.9,8.9,0,0,0,7.1-3v2.179a6.844,6.844,0,0,1-1.76,5.016,6.66,6.66,0,0,1-4.94,1.781,8.475,8.475,0,0,1-6.82-3.445l-2.25,2.6a9.234,9.234,0,0,0,4.01,3.21,13.037,13.037,0,0,0,5.37,1.172,10.777,10.777,0,0,0,7.84-2.836,10.33,10.33,0,0,0,2.91-7.757V565.36h-3.96l-0.21,2.812a9.456,9.456,0,0,0-14.51.223q-2.73,3.5-2.74,9.433Q1175.27,584.016,1178.03,587.6Zm3.38-16.571a5.774,5.774,0,0,1,4.95-2.46,6.415,6.415,0,0,1,5.97,3.632v11.578a6.339,6.339,0,0,1-6.02,3.727,5.7,5.7,0,0,1-4.92-2.449,11.384,11.384,0,0,1-1.76-6.738C1179.63,575.1,1180.23,572.672,1181.41,571.031Zm24.84,19.219a2.59,2.59,0,0,0,2,.727,2.661,2.661,0,0,0,2.03-.727,2.518,2.518,0,0,0,.69-1.8,2.664,2.664,0,0,0-.69-1.875,2.613,2.613,0,0,0-2.03-.75,2.544,2.544,0,0,0-2,.75,2.742,2.742,0,0,0-.67,1.875A2.59,2.59,0,0,0,1206.25,590.25Zm68.95,0.469h7.55v-0.328l-7.38-13.945a10.3,10.3,0,0,0,4.58-3.715,10.482,10.482,0,0,0,1.51-5.825,9.294,9.294,0,0,0-3.28-7.617q-3.285-2.694-9.33-2.695h-12.68v34.125h7.03V578.227h5.61Zm-12-28.43h5.65a5.7,5.7,0,0,1,4.21,1.383,5.173,5.173,0,0,1,1.37,3.8,4.812,4.812,0,0,1-1.45,3.715,5.816,5.816,0,0,1-4.1,1.347h-5.68V562.289Zm24.51,15.821q0,6.046,3.27,9.562a12.618,12.618,0,0,0,17.49-.012,13.262,13.262,0,0,0,3.26-9.363l-0.05-1.734a12.579,12.579,0,0,0-3.62-8.532,11.549,11.549,0,0,0-8.38-3.14,12.222,12.222,0,0,0-6.34,1.617,10.642,10.642,0,0,0-4.18,4.57,15.023,15.023,0,0,0-1.45,6.727v0.305Zm8.13-5.822a4.427,4.427,0,0,1,3.84-1.936,4.493,4.493,0,0,1,3.89,1.948,9.324,9.324,0,0,1,1.39,5.493q0,4.155-1.39,6.044a4.879,4.879,0,0,1-7.73-.023,9.45,9.45,0,0,1-1.36-5.528Q1294.48,574.226,1295.84,572.288Zm45.31,5.611q0-6.187-2.63-9.6a8.7,8.7,0,0,0-7.28-3.41,7.7,7.7,0,0,0-6.16,2.742V554.719h-6.78v36h6.1l0.3-2.7a7.925,7.925,0,0,0,6.59,3.164,8.6,8.6,0,0,0,7.26-3.41q2.61-3.411,2.6-9.5V577.9Zm-7.26,4.584a4.189,4.189,0,0,1-4.31,3.244,4.512,4.512,0,0,1-4.5-2.68V573.008a4.457,4.457,0,0,1,4.45-2.656,4.109,4.109,0,0,1,3.63,1.775q1.215,1.774,1.22,5.63a16.738,16.738,0,0,1-.49,4.726h0Zm12.78-4.373q0,6.046,3.27,9.562a12.63,12.63,0,0,0,17.5-.012,13.257,13.257,0,0,0,3.25-9.363l-0.04-1.734a12.624,12.624,0,0,0-3.62-8.532,11.566,11.566,0,0,0-8.38-3.14,12.2,12.2,0,0,0-6.34,1.617,10.664,10.664,0,0,0-4.19,4.57,15.023,15.023,0,0,0-1.45,6.727v0.305Zm8.13-5.822a4.432,4.432,0,0,1,3.85-1.936,4.493,4.493,0,0,1,3.89,1.948,9.4,9.4,0,0,1,1.38,5.493q0,4.155-1.38,6.044a4.889,4.889,0,0,1-7.74-.023,9.526,9.526,0,0,1-1.36-5.528C1353.44,575.579,1353.9,573.58,1354.8,572.288Zm23.8-13.163v6.235h-3.7v4.968h3.7v13.664q0.15,7.2,7.27,7.2a13.983,13.983,0,0,0,4.1-.61v-5.132a10.824,10.824,0,0,1-1.99.164,2.718,2.718,0,0,1-2.07-.61,3.02,3.02,0,0,1-.53-2.015V570.328h4.33V565.36h-4.33v-6.235h-6.78Zm15.53,18.985q0,6.046,3.27,9.562a12.618,12.618,0,0,0,17.49-.012,13.262,13.262,0,0,0,3.26-9.363l-0.05-1.734a12.579,12.579,0,0,0-3.62-8.532,11.533,11.533,0,0,0-8.38-3.14,12.222,12.222,0,0,0-6.34,1.617,10.642,10.642,0,0,0-4.18,4.57,15.023,15.023,0,0,0-1.45,6.727v0.305Zm8.13-5.822a4.427,4.427,0,0,1,3.84-1.936,4.493,4.493,0,0,1,3.89,1.948,9.324,9.324,0,0,1,1.39,5.493q0,4.155-1.39,6.044a4.879,4.879,0,0,1-7.73-.023,9.45,9.45,0,0,1-1.36-5.528Q1400.9,574.226,1402.26,572.288Zm59.67,5.611q0-6.187-2.64-9.6a8.69,8.69,0,0,0-7.28-3.41,7.712,7.712,0,0,0-6.16,2.742V554.719h-6.77v36h6.09l0.3-2.7a7.925,7.925,0,0,0,6.59,3.164,8.633,8.633,0,0,0,7.27-3.41q2.6-3.411,2.6-9.5V577.9Zm-7.27,4.584a4.181,4.181,0,0,1-4.31,3.244,4.53,4.53,0,0,1-4.5-2.68V573.008a4.465,4.465,0,0,1,4.45-2.656,4.109,4.109,0,0,1,3.63,1.775c0.82,1.183,1.22,3.06,1.22,5.63a16.738,16.738,0,0,1-.49,4.726h0Zm12.78-4.373q0,6.046,3.27,9.562a12.63,12.63,0,0,0,17.5-.012,13.262,13.262,0,0,0,3.26-9.363l-0.05-1.734a12.624,12.624,0,0,0-3.62-8.532,11.566,11.566,0,0,0-8.38-3.14,12.2,12.2,0,0,0-6.34,1.617,10.642,10.642,0,0,0-4.18,4.57,15.026,15.026,0,0,0-1.46,6.727v0.305Zm8.14-5.822a4.4,4.4,0,0,1,3.84-1.936,4.493,4.493,0,0,1,3.89,1.948,9.4,9.4,0,0,1,1.38,5.493q0,4.155-1.38,6.044a4.879,4.879,0,0,1-7.73-.023,9.45,9.45,0,0,1-1.36-5.528Q1474.22,574.226,1475.58,572.288Zm29.61-17.569h-6.8v36h6.8v-36Zm9.63,32.941a8.6,8.6,0,0,0,7.18,3.528,7.978,7.978,0,0,0,6.52-3.164l0.33,2.7h6.11v-36h-6.79v12.937a7.774,7.774,0,0,0-6.12-2.765,8.631,8.631,0,0,0-7.28,3.515q-2.655,3.516-2.66,9.446Q1512.11,584.132,1514.82,587.66Zm8.96-17.308a4.48,4.48,0,0,1,4.39,2.66v10.054a4.535,4.535,0,0,1-4.43,2.661,4.034,4.034,0,0,1-3.61-1.907,10.046,10.046,0,0,1-1.25-5.486q0-7.981,4.9-7.982h0Z" transform="translate(-949.719 -498)"/>
</svg>
