<svg xmlns="http://www.w3.org/2000/svg" width="69.407" height="23.41" viewBox="0 0 69.407 23.41">
  <defs>
    <style>
      .cls-1 {
        fill: #b52b21;
        fill-rule: evenodd;
      }
    </style>
  </defs>
  <path id="eKen_copy_2" data-name="eKen copy 2" class="cls-1" d="M388.878,2043.07a11,11,0,0,1-1.9.56,9.647,9.647,0,0,1-2,.22,6.835,6.835,0,0,1-2.485-.41,5.054,5.054,0,0,1-2.992-2.9,7.107,7.107,0,0,1-.487-2.24l9.16-.49a8.911,8.911,0,0,0,.332-2.14,5.177,5.177,0,0,0-.312-1.83,4.057,4.057,0,0,0-.9-1.44,4.241,4.241,0,0,0-1.442-.93,5.245,5.245,0,0,0-1.968-.34,9.08,9.08,0,0,0-3.216.57,8.224,8.224,0,0,0-2.661,1.62,7.527,7.527,0,0,0-1.8,2.51,7.9,7.9,0,0,0-.662,3.27,8.4,8.4,0,0,0,.428,2.67,6.854,6.854,0,0,0,1.258,2.27,6.175,6.175,0,0,0,2.046,1.58,6.385,6.385,0,0,0,2.8.59,9.374,9.374,0,0,0,1.413-.14q0.848-.15,1.832-0.42t2.017-.66a21.323,21.323,0,0,0,1.969-.82ZM379,2037.11a6.2,6.2,0,0,1,.234-1.57,3.766,3.766,0,0,1,.653-1.31,3.248,3.248,0,0,1,1.111-.91,3.482,3.482,0,0,1,1.608-.34,2.715,2.715,0,0,1,1.053.2,2.211,2.211,0,0,1,.779.57,2.487,2.487,0,0,1,.478.85,3.176,3.176,0,0,1,.165,1.03c0,0.18-.006.36-0.019,0.53a4.052,4.052,0,0,1-.078.52Zm12.513-12.53a6.162,6.162,0,0,1,.857-0.06,2.47,2.47,0,0,1,.634.08,1.109,1.109,0,0,1,.487.27,1.244,1.244,0,0,1,.312.54,2.978,2.978,0,0,1,.107.88v19.3a0.426,0.426,0,0,0,.468.49c0.1,0,.263-0.01.477-0.01s0.449-.02.7-0.04,0.513-.05.78-0.08,0.509-.07.73-0.11a0.5,0.5,0,0,0,.468-0.54v-11.44l9.648,11.87a0.845,0.845,0,0,0,.721.35c0.091,0,.276-0.01.556-0.01s0.591-.02.935-0.04,0.689-.05,1.033-0.08,0.627-.07.848-0.11a0.575,0.575,0,0,0,.292-0.14,0.352,0.352,0,0,0,.117-0.25,0.5,0.5,0,0,0-.1-0.21l-10.35-12.51,9.668-9.11a0.361,0.361,0,0,0,.117-0.27,0.343,0.343,0,0,0-.1-0.24,0.409,0.409,0,0,0-.312-0.11c-0.117,0-.282,0-0.5.01l-0.7.03a6.219,6.219,0,0,0-.751.07,4.5,4.5,0,0,0-.643.12,1.818,1.818,0,0,0-.9.57l-9.59,10.04v-10.41a0.554,0.554,0,0,0-.624-0.63c-0.091,0-.3.02-0.623,0.04s-0.731.07-1.218,0.12-1.046.12-1.677,0.21-1.3.21-2,.34Zm34.692,18.49a11,11,0,0,1-1.9.56,9.647,9.647,0,0,1-2,.22,6.835,6.835,0,0,1-2.485-.41,5.054,5.054,0,0,1-2.992-2.9,7.107,7.107,0,0,1-.487-2.24l9.16-.49a8.911,8.911,0,0,0,.332-2.14,5.177,5.177,0,0,0-.312-1.83,4.057,4.057,0,0,0-.9-1.44,4.241,4.241,0,0,0-1.442-.93,5.247,5.247,0,0,0-1.969-.34,9.079,9.079,0,0,0-3.215.57,8.224,8.224,0,0,0-2.661,1.62,7.527,7.527,0,0,0-1.8,2.51,7.9,7.9,0,0,0-.663,3.27,8.406,8.406,0,0,0,.429,2.67,6.87,6.87,0,0,0,1.257,2.27,6.189,6.189,0,0,0,2.047,1.58,6.385,6.385,0,0,0,2.8.59,9.374,9.374,0,0,0,1.413-.14q0.847-.15,1.832-0.42t2.017-.66a21.323,21.323,0,0,0,1.969-.82Zm-9.882-5.96a6.2,6.2,0,0,1,.234-1.57,3.766,3.766,0,0,1,.653-1.31,3.248,3.248,0,0,1,1.111-.91,3.482,3.482,0,0,1,1.608-.34,2.715,2.715,0,0,1,1.053.2,2.22,2.22,0,0,1,.779.57,2.487,2.487,0,0,1,.478.85,3.176,3.176,0,0,1,.165,1.03c0,0.18-.006.36-0.019,0.53a4.052,4.052,0,0,1-.078.52Zm12.532-3.86a3.879,3.879,0,0,1,.5-0.07c0.136,0,.27-0.01.4-0.01a1.338,1.338,0,0,1,1.052.38,2.247,2.247,0,0,1,.331,1.42v10.62a0.426,0.426,0,0,0,.468.49c0.091,0,.237-0.01.439-0.01s0.422-.02.662-0.04,0.488-.05.741-0.08,0.484-.07.692-0.11a0.5,0.5,0,0,0,.468-0.54v-11.07a11.51,11.51,0,0,1,2.27-.76,8.334,8.334,0,0,1,1.316-.2,3.934,3.934,0,0,1,1.559.27,2.5,2.5,0,0,1,1.014.82,3.539,3.539,0,0,1,.555,1.34,9.03,9.03,0,0,1,.166,1.84v0.29l-0.1,7.76a0.426,0.426,0,0,0,.468.49c0.091,0,.237-0.01.439-0.01s0.422-.02.662-0.04,0.488-.05.741-0.08,0.484-.07.692-0.11a0.5,0.5,0,0,0,.468-0.54l0.1-9.38a7.7,7.7,0,0,0-.234-1.96,4.012,4.012,0,0,0-.74-1.51,3.449,3.449,0,0,0-1.3-.97,4.565,4.565,0,0,0-1.9-.35,6.832,6.832,0,0,0-1.15.12c-0.455.09-.955,0.21-1.5,0.35s-1.121.33-1.725,0.52-1.206.4-1.8,0.62l-0.059-.81a0.637,0.637,0,0,0-.643-0.71,5.2,5.2,0,0,0-.565.06c-0.286.04-.653,0.11-1.1,0.2s-0.969.2-1.56,0.34-1.237.3-1.939,0.5Z" transform="translate(-375.531 -2022.81)"/>
</svg>
