<svg xmlns="http://www.w3.org/2000/svg" width="585.592" height="105.469" viewBox="0 0 585.592 105.469">
  <defs>
    <style>
      .cls-1 {
        fill: #fff;
        fill-rule: evenodd;
      }
    </style>
  </defs>
  <path id="Roboto_bold" data-name="Roboto bold" class="cls-1" d="M949.878,624v-7.4h6.7l4.752,7.4h1.08L957.6,616.5a4.632,4.632,0,0,0,1.917-.621,5.393,5.393,0,0,0,1.485-1.3,5.882,5.882,0,0,0,.959-1.782,6.535,6.535,0,0,0,.337-2.106,5.9,5.9,0,0,0-.4-2.133,6.121,6.121,0,0,0-1.134-1.877,5.8,5.8,0,0,0-1.741-1.336,4.8,4.8,0,0,0-2.2-.513h-7.884V624h0.945Zm0-18.306h6.912a3.931,3.931,0,0,1,1.782.418,4.891,4.891,0,0,1,1.458,1.107,5.33,5.33,0,0,1,.986,1.593,4.977,4.977,0,0,1,.364,1.877,5.806,5.806,0,0,1-.31,1.863,5.208,5.208,0,0,1-.878,1.62,4.379,4.379,0,0,1-1.39,1.134,3.867,3.867,0,0,1-1.823.432h-7.1V605.7Zm23.139,17.887a6.384,6.384,0,0,0,2.511-1.957v1.242a1.171,1.171,0,0,0,.311.823,1,1,0,0,0,.769.338h0.122a0.506,0.506,0,0,0,.148-0.027v-0.864a0.483,0.483,0,0,1-.486-0.594V615.2a5.489,5.489,0,0,0-1.417-4,5.155,5.155,0,0,0-3.875-1.458,9.063,9.063,0,0,0-5,1.836l0.432,0.675a10.3,10.3,0,0,1,2.322-1.283,6.116,6.116,0,0,1,2.187-.445,4.258,4.258,0,0,1,3.227,1.255,4.664,4.664,0,0,1,1.2,3.362v1.512a10.5,10.5,0,0,0-2.173-.567,15.363,15.363,0,0,0-2.39-.189,8.682,8.682,0,0,0-2.335.3,5.935,5.935,0,0,0-1.836.837,4.06,4.06,0,0,0-1.2,1.282,3.192,3.192,0,0,0-.432,1.634,4.11,4.11,0,0,0,.351,1.7,4.2,4.2,0,0,0,.972,1.363,4.667,4.667,0,0,0,1.458.918,4.792,4.792,0,0,0,1.809.338A8.039,8.039,0,0,0,973.017,623.582Zm-4.711-.364a3.683,3.683,0,0,1-1.2-.756,3.631,3.631,0,0,1-.81-1.134,3.329,3.329,0,0,1-.3-1.4,2.6,2.6,0,0,1,.365-1.364,3.215,3.215,0,0,1,1.026-1.039,5.392,5.392,0,0,1,1.579-.675,7.906,7.906,0,0,1,2.025-.243,12.377,12.377,0,0,1,4.482.81v2.646a2.044,2.044,0,0,1-.513,1.323,4.88,4.88,0,0,1-1.323,1.093,7.361,7.361,0,0,1-1.822.743,7.784,7.784,0,0,1-2.012.27A4.066,4.066,0,0,1,968.306,623.218Zm13-1.431a2.316,2.316,0,0,0,.635,1.714,2.243,2.243,0,0,0,1.66.635,6.188,6.188,0,0,0,1.04-.108,7.313,7.313,0,0,0,1.012-.243l-0.216-.756a3.841,3.841,0,0,1-.769.2,4.624,4.624,0,0,1-.716.068,1.773,1.773,0,0,1-1.269-.459,1.627,1.627,0,0,1-.486-1.242V604.291h-0.891v17.5Zm14.742,2.227a7.363,7.363,0,0,0,1.66-.7,5.419,5.419,0,0,0,1.337-1.08,4.706,4.706,0,0,0,.864-1.363l-0.837-.216a4.632,4.632,0,0,1-.783,1.147,4.874,4.874,0,0,1-1.134.905,5.75,5.75,0,0,1-1.391.58,5.668,5.668,0,0,1-1.5.2,5.259,5.259,0,0,1-2.2-.473,6.081,6.081,0,0,1-1.836-1.282,6.494,6.494,0,0,1-1.3-1.931,7.4,7.4,0,0,1-.607-2.416h12.584a0.368,0.368,0,0,0,.02-0.189v-0.216a7.539,7.539,0,0,0-.52-2.808,7.308,7.308,0,0,0-1.446-2.309,6.753,6.753,0,0,0-2.16-1.552,6.424,6.424,0,0,0-2.7-.567,6.179,6.179,0,0,0-2.646.567,6.95,6.95,0,0,0-2.133,1.539,7.04,7.04,0,0,0-1.431,2.268,7.487,7.487,0,0,0-.513,2.781,7.7,7.7,0,0,0,.526,2.848,7.485,7.485,0,0,0,1.458,2.349,6.894,6.894,0,0,0,2.174,1.593,6.235,6.235,0,0,0,2.673.581A6.6,6.6,0,0,0,996.048,624.014Zm-7.722-7.411a7.222,7.222,0,0,1,.553-2.4,6.4,6.4,0,0,1,1.242-1.917,5.617,5.617,0,0,1,1.8-1.269,5.359,5.359,0,0,1,2.214-.459,5.5,5.5,0,0,1,2.214.445,5.743,5.743,0,0,1,1.822,1.256,6.337,6.337,0,0,1,1.283,1.917,7.142,7.142,0,0,1,.57,2.43H988.326Zm28.134,6.291-3.19-7.371,2.38-5.535h-0.86l-2,4.725-2.03-4.725h-0.83l2.34,5.535-3.15,7.371-5.59-12.933h-0.95l6.1,14.04h0.79l3.32-7.668,3.29,7.668h0.78l6.11-14.04h-0.95Zm16.23,0.688a6.438,6.438,0,0,0,2.51-1.957v1.242a1.157,1.157,0,0,0,.31.823,1,1,0,0,0,.77.338h0.12a0.582,0.582,0,0,0,.15-0.027v-0.864a0.483,0.483,0,0,1-.49-0.594V615.2a5.469,5.469,0,0,0-1.42-4,5.132,5.132,0,0,0-3.87-1.458,9.077,9.077,0,0,0-5,1.836l0.44,0.675a10.077,10.077,0,0,1,2.32-1.283,6.09,6.09,0,0,1,2.19-.445,4.24,4.24,0,0,1,3.22,1.255,4.664,4.664,0,0,1,1.2,3.362v1.512a10.341,10.341,0,0,0-2.17-.567,15.372,15.372,0,0,0-2.39-.189,8.618,8.618,0,0,0-2.33.3,5.842,5.842,0,0,0-1.84.837,4.11,4.11,0,0,0-1.2,1.282,3.17,3.17,0,0,0-.43,1.634,4.132,4.132,0,0,0,1.32,3.064,4.608,4.608,0,0,0,1.46.918,4.76,4.76,0,0,0,1.81.338A8.075,8.075,0,0,0,1032.69,623.582Zm-4.71-.364a3.8,3.8,0,0,1-1.21-.756,3.7,3.7,0,0,1-.81-1.134,3.451,3.451,0,0,1-.29-1.4,2.625,2.625,0,0,1,.36-1.364,3.219,3.219,0,0,1,1.03-1.039,5.3,5.3,0,0,1,1.58-.675,7.844,7.844,0,0,1,2.02-.243,12.327,12.327,0,0,1,4.48.81v2.646a2.051,2.051,0,0,1-.51,1.323,4.834,4.834,0,0,1-1.32,1.093,7.426,7.426,0,0,1-1.82.743,7.85,7.85,0,0,1-2.02.27A3.99,3.99,0,0,1,1027.98,623.218ZM1041.54,630c0.2,0,.39,0,0.57-0.014a3.83,3.83,0,0,0,.54-0.067,1.951,1.951,0,0,0,1.49-1.161l8.01-18.792h-0.91l-5.57,13.068-5.91-13.068h-0.97l6.4,14.04q-0.645,1.539-1.05,2.47c-0.27.621-.49,1.107-0.65,1.458a5.447,5.447,0,0,1-.39.729,1.074,1.074,0,0,1-.29.284,2.933,2.933,0,0,1-1.27.189V630Zm20.95-8.208a2.331,2.331,0,0,0,.64,1.714,2.246,2.246,0,0,0,1.66.635,6.218,6.218,0,0,0,1.04-.108,7.459,7.459,0,0,0,1.01-.243l-0.21-.756a3.943,3.943,0,0,1-.77.2,4.648,4.648,0,0,1-.72.068,1.788,1.788,0,0,1-1.27-.459,1.638,1.638,0,0,1-.48-1.242V604.291h-0.9v17.5Zm8,2.214v-14.04h-0.92V624h0.92Zm0-17.442v-2.268h-0.92v2.268h0.92Zm12.21,17.455a6.815,6.815,0,0,0,1.48-.634,7.2,7.2,0,0,0,1.3-.972,5.723,5.723,0,0,0,1.04-1.269v3.294a4.689,4.689,0,0,1-.43,2.079,4.264,4.264,0,0,1-1.19,1.5,5.044,5.044,0,0,1-1.74.9,7.3,7.3,0,0,1-2.12.3,7.383,7.383,0,0,1-3.13-.675,5.165,5.165,0,0,1-2.32-2.187l-0.68.378a7.046,7.046,0,0,0,.96,1.336,5.557,5.557,0,0,0,1.29,1.04,6.243,6.243,0,0,0,1.68.675,9.04,9.04,0,0,0,2.2.243,8.621,8.621,0,0,0,2.43-.338,5.756,5.756,0,0,0,2.04-1.039,5.3,5.3,0,0,0,1.41-1.742,5.421,5.421,0,0,0,.52-2.47V609.961h-0.86v3.186a12.073,12.073,0,0,0-1.08-1.323,7.474,7.474,0,0,0-1.3-1.08,6.54,6.54,0,0,0-1.51-.729,5.451,5.451,0,0,0-1.73-.27,5.814,5.814,0,0,0-2.66.607,6.526,6.526,0,0,0-2.06,1.62,7.451,7.451,0,0,0-1.34,2.322,8.135,8.135,0,0,0-.47,2.741,7.157,7.157,0,0,0,.5,2.646,7.42,7.42,0,0,0,1.39,2.308,6.868,6.868,0,0,0,2.13,1.634,5.978,5.978,0,0,0,2.7.621A5.385,5.385,0,0,0,1082.7,624.014Zm-3.74-1.134a6.108,6.108,0,0,1-1.87-1.4,6.778,6.778,0,0,1-1.26-2.025,6.565,6.565,0,0,1-.46-2.416,7.4,7.4,0,0,1,.38-2.309,6.508,6.508,0,0,1,1.11-2.065,5.647,5.647,0,0,1,1.78-1.485,5.215,5.215,0,0,1,4.1-.27,6.529,6.529,0,0,1,1.57.81,6.3,6.3,0,0,1,1.31,1.242,5.7,5.7,0,0,1,.9,1.566v4.833a3.157,3.157,0,0,1-.55,1.444,5.415,5.415,0,0,1-1.2,1.3,6.616,6.616,0,0,1-1.63.945,4.937,4.937,0,0,1-1.85.365A5.257,5.257,0,0,1,1078.96,622.88Zm24.57-6.817a8.409,8.409,0,0,0-1.09-4.671,3.755,3.755,0,0,0-3.36-1.647,5.7,5.7,0,0,0-1.74.27,6.617,6.617,0,0,0-1.61.756,7.16,7.16,0,0,0-2.46,2.7v-9.18h-0.91V624h0.91v-8.775a6.271,6.271,0,0,1,.84-1.823,6.834,6.834,0,0,1,1.32-1.471,6.283,6.283,0,0,1,1.65-.972,5.011,5.011,0,0,1,1.84-.351c2.46,0,3.7,1.854,3.7,5.562V624h0.91v-7.938Zm10.1,6.534a2.125,2.125,0,0,1-.21.135,4.5,4.5,0,0,1-.49.229,4.956,4.956,0,0,1-.69.216,3.451,3.451,0,0,1-.82.1,2,2,0,0,1-1.24-.405,1.551,1.551,0,0,1-.6-1.188V610.771h3.32v-0.81h-3.32v-4.833h-0.92v4.833h-1.99v0.81h1.99v11.043a2.066,2.066,0,0,0,.77,1.714,2.872,2.872,0,0,0,1.83.608,4.818,4.818,0,0,0,1.04-.108,5.407,5.407,0,0,0,.83-0.257,4.466,4.466,0,0,0,.58-0.27c0.15-.081.24-0.13,0.27-0.148Zm44,1.4v-7.074h5.67l4.51,7.074h2.14l-4.7-7.4a4.676,4.676,0,0,0,1.75-.716,5.131,5.131,0,0,0,1.34-1.3,6,6,0,0,0,.86-1.728,6.4,6.4,0,0,0,.31-2.011,6.192,6.192,0,0,0-.41-2.187,6.431,6.431,0,0,0-1.18-1.931,5.976,5.976,0,0,0-1.79-1.377,5.026,5.026,0,0,0-2.29-.526h-8.1V624h1.89Zm0-17.5h6.11a3.31,3.31,0,0,1,1.49.351,3.981,3.981,0,0,1,1.25.945,4.7,4.7,0,0,1,1.14,3.051,5.017,5.017,0,0,1-.27,1.647,4.875,4.875,0,0,1-.75,1.4,3.71,3.71,0,0,1-1.18.985,3.185,3.185,0,0,1-1.52.365h-6.27v-8.748Zm22.43,17.091a6.392,6.392,0,0,0,2.44-1.944l0.06,1.107a1.289,1.289,0,0,0,.41.972,1.593,1.593,0,0,0,1.1.351,4.43,4.43,0,0,0,.7-0.081v-1.62a0.638,0.638,0,0,1-.68-0.756V615.28a5.481,5.481,0,0,0-1.51-4.1,5.676,5.676,0,0,0-4.16-1.485,9.5,9.5,0,0,0-5.29,1.836l0.65,1.215a10.523,10.523,0,0,1,2.3-1.242,6.151,6.151,0,0,1,2.21-.432,3.882,3.882,0,0,1,2.92,1.093,4.091,4.091,0,0,1,1.05,2.957v1.269a9.5,9.5,0,0,0-1.97-.54,13.03,13.03,0,0,0-2.19-.189,8.629,8.629,0,0,0-2.38.31,5.911,5.911,0,0,0-1.86.878,4.036,4.036,0,0,0-1.21,1.35,3.449,3.449,0,0,0-.44,1.7,4.112,4.112,0,0,0,.36,1.714,4.184,4.184,0,0,0,.98,1.391,4.624,4.624,0,0,0,1.49.931,4.931,4.931,0,0,0,1.85.338A7.531,7.531,0,0,0,1180.06,623.6Zm-4.07-.972a3.334,3.334,0,0,1-1.06-.662,3.011,3.011,0,0,1-.7-0.985,2.782,2.782,0,0,1-.26-1.215,2.457,2.457,0,0,1,1.21-2.133,5.613,5.613,0,0,1,3.16-.81,10.722,10.722,0,0,1,2.02.189,11.348,11.348,0,0,1,1.9.54v2.295a1.356,1.356,0,0,1-.12.526,1.72,1.72,0,0,1-.37.527,4.273,4.273,0,0,1-1.82,1.431,6.346,6.346,0,0,1-2.63.54A3.65,3.65,0,0,1,1175.99,622.624Zm12.69-1.188a2.713,2.713,0,0,0,.73,2.011,2.75,2.75,0,0,0,2,.716,7.341,7.341,0,0,0,1.28-.135,5.985,5.985,0,0,0,1.26-.351l-0.32-1.485a4.865,4.865,0,0,1-.76.216,3.615,3.615,0,0,1-.7.081,1.632,1.632,0,0,1-1.22-.446,1.68,1.68,0,0,1-.43-1.228V604.291h-1.84v17.145Zm15.85,2.578a6.728,6.728,0,0,0,1.73-.729,6.577,6.577,0,0,0,1.38-1.107,4.879,4.879,0,0,0,.92-1.417l-1.6-.432a3.307,3.307,0,0,1-.7,1.039,4.88,4.88,0,0,1-1.02.8,5.56,5.56,0,0,1-1.25.513,4.987,4.987,0,0,1-1.35.189,4.844,4.844,0,0,1-1.93-.392,5.055,5.055,0,0,1-1.6-1.093,5.781,5.781,0,0,1-1.15-1.661,5.986,5.986,0,0,1-.53-2.092h12.04a0.983,0.983,0,0,0,.03-0.3V616.9a7.452,7.452,0,0,0-.51-2.754,7.363,7.363,0,0,0-1.43-2.295,6.936,6.936,0,0,0-10.06-.014,7.238,7.238,0,0,0-1.46,2.295,7.438,7.438,0,0,0-.52,2.8,7.613,7.613,0,0,0,.52,2.835,7.373,7.373,0,0,0,1.47,2.335,6.979,6.979,0,0,0,2.23,1.593,6.792,6.792,0,0,0,2.82.581A7.451,7.451,0,0,0,1204.53,624.014Zm-7.12-7.789a6.248,6.248,0,0,1,.49-2.052,5.183,5.183,0,0,1,1.11-1.62,5.074,5.074,0,0,1,3.55-1.431,4.921,4.921,0,0,1,1.93.378,4.98,4.98,0,0,1,1.6,1.053,5.853,5.853,0,0,1,1.13,1.606,5.747,5.747,0,0,1,.53,2.066h-10.34Zm27.7,5.886-2.68-6.426,2.41-5.724h-1.57l-1.83,4.59-1.84-4.59h-1.54l2.4,5.724-2.67,6.426-5.13-12.177h-1.78L1216.93,624h1.51l3-7.182,3.02,7.182h1.51l6.05-14.067h-1.81Zm16.24,1.485a6.392,6.392,0,0,0,2.44-1.944l0.06,1.107a1.289,1.289,0,0,0,.41.972,1.593,1.593,0,0,0,1.1.351,4.43,4.43,0,0,0,.7-0.081v-1.62a0.638,0.638,0,0,1-.68-0.756V615.28a5.481,5.481,0,0,0-1.51-4.1,5.676,5.676,0,0,0-4.16-1.485,9.5,9.5,0,0,0-5.29,1.836l0.65,1.215a10.523,10.523,0,0,1,2.3-1.242,6.151,6.151,0,0,1,2.21-.432,3.882,3.882,0,0,1,2.92,1.093,4.091,4.091,0,0,1,1.05,2.957v1.269a9.5,9.5,0,0,0-1.97-.54,13.03,13.03,0,0,0-2.19-.189,8.629,8.629,0,0,0-2.38.31,5.911,5.911,0,0,0-1.86.878,4.036,4.036,0,0,0-1.21,1.35,3.449,3.449,0,0,0-.44,1.7,4.112,4.112,0,0,0,.36,1.714,4.184,4.184,0,0,0,.98,1.391,4.624,4.624,0,0,0,1.49.931,4.931,4.931,0,0,0,1.85.338A7.531,7.531,0,0,0,1241.35,623.6Zm-4.07-.972a3.227,3.227,0,0,1-1.06-.662,3.011,3.011,0,0,1-.7-0.985,2.782,2.782,0,0,1-.26-1.215,2.457,2.457,0,0,1,1.21-2.133,5.613,5.613,0,0,1,3.16-.81,10.539,10.539,0,0,1,2.01.189,11.2,11.2,0,0,1,1.91.54v2.295a1.356,1.356,0,0,1-.12.526,1.72,1.72,0,0,1-.37.527,4.273,4.273,0,0,1-1.82,1.431,6.346,6.346,0,0,1-2.63.54A3.65,3.65,0,0,1,1237.28,622.624Zm13.07,7.317c0.24,0.035.43,0.058,0.6,0.067s0.33,0.014.51,0.014a2.835,2.835,0,0,0,1.88-.581,3.3,3.3,0,0,0,.98-1.363l7.29-18.144h-1.75l-4.84,12.366-5.21-12.366h-1.89L1254.05,624q-0.615,1.458-.96,2.322a9.315,9.315,0,0,1-.6,1.323,1.445,1.445,0,0,1-.56.594,1.818,1.818,0,0,1-.77.135c-0.12,0-.25,0-0.39-0.014s-0.27-.023-0.42-0.04v1.62Zm28.08-20.061a1.8,1.8,0,0,0-.35-0.027,4.857,4.857,0,0,0-2.83.918,6.326,6.326,0,0,0-2.11,2.538v-3.375h-1.73V624h1.84v-8.748a5.167,5.167,0,0,1,1.94-2.673,5.785,5.785,0,0,1,3.24-1.026V609.88Zm10.34,14.134a6.728,6.728,0,0,0,1.73-.729,6.577,6.577,0,0,0,1.38-1.107,4.879,4.879,0,0,0,.92-1.417l-1.6-.432a3.307,3.307,0,0,1-.7,1.039,4.635,4.635,0,0,1-1.02.8,5.56,5.56,0,0,1-1.25.513,4.987,4.987,0,0,1-1.35.189,4.844,4.844,0,0,1-1.93-.392,5.055,5.055,0,0,1-1.6-1.093,5.781,5.781,0,0,1-1.15-1.661,5.986,5.986,0,0,1-.53-2.092h12.04a0.983,0.983,0,0,0,.03-0.3V616.9a7.452,7.452,0,0,0-.51-2.754,7.363,7.363,0,0,0-1.43-2.295,6.973,6.973,0,0,0-7.83-1.58,6.855,6.855,0,0,0-2.23,1.566,7.238,7.238,0,0,0-1.46,2.295,7.438,7.438,0,0,0-.52,2.8,7.613,7.613,0,0,0,.52,2.835,7.373,7.373,0,0,0,1.47,2.335,6.979,6.979,0,0,0,2.23,1.593,6.792,6.792,0,0,0,2.82.581A7.451,7.451,0,0,0,1288.77,624.014Zm-7.12-7.789a6.016,6.016,0,0,1,.5-2.052,5.028,5.028,0,0,1,4.65-3.051,4.921,4.921,0,0,1,1.93.378,4.98,4.98,0,0,1,1.6,1.053,5.648,5.648,0,0,1,1.13,1.606,5.747,5.747,0,0,1,.53,2.066h-10.34Zm24.05,7.182a5.85,5.85,0,0,0,2.22-2.133v2.781a4.567,4.567,0,0,1-.41,1.984,3.929,3.929,0,0,1-1.09,1.4,4.836,4.836,0,0,1-1.61.837,6.535,6.535,0,0,1-1.94.284,6.991,6.991,0,0,1-2.97-.635,5.079,5.079,0,0,1-2.22-1.984l-1.13.891a6.885,6.885,0,0,0,2.4,2.322,7.772,7.772,0,0,0,3.92.864,9.26,9.26,0,0,0,2.66-.378,6.372,6.372,0,0,0,2.18-1.134,5.593,5.593,0,0,0,1.49-1.877,5.733,5.733,0,0,0,.55-2.578V609.934h-1.64v2.943a8.875,8.875,0,0,0-2.27-2.282,5.416,5.416,0,0,0-3.13-.9,5.893,5.893,0,0,0-2.66.594,6.486,6.486,0,0,0-2.07,1.593,7.219,7.219,0,0,0-1.34,2.335,8.45,8.45,0,0,0-.47,2.8,7.654,7.654,0,0,0,1.85,4.968,6.936,6.936,0,0,0,2.08,1.606,5.814,5.814,0,0,0,2.66.608A5.919,5.919,0,0,0,1305.7,623.407Zm-4.48-1.2a5.415,5.415,0,0,1-1.66-1.215,5.6,5.6,0,0,1-1.12-1.795,5.833,5.833,0,0,1-.41-2.16,6.764,6.764,0,0,1,.34-2.079,5.98,5.98,0,0,1,.99-1.836,5.056,5.056,0,0,1,1.58-1.31,4.391,4.391,0,0,1,2.12-.5,4.305,4.305,0,0,1,1.49.27,5.981,5.981,0,0,1,1.4.729,5.881,5.881,0,0,1,1.16,1.107,5.6,5.6,0,0,1,.81,1.4v4.347a3.43,3.43,0,0,1-.57,1.269,5.116,5.116,0,0,1-1.07,1.12,5.275,5.275,0,0,1-1.41.8,4.529,4.529,0,0,1-1.6.3A4.736,4.736,0,0,1,1301.22,622.205Zm14.45,1.8v-2.646h-1.6V624h1.6Zm44.61,0v-6.426h3.67l3.92,6.426h4.18l-4.37-7.209a5.342,5.342,0,0,0,2.52-2.2,6.381,6.381,0,0,0,.93-3.388,6.282,6.282,0,0,0-.45-2.309,6.965,6.965,0,0,0-1.27-2.052,6.4,6.4,0,0,0-1.93-1.458,5.483,5.483,0,0,0-2.45-.553h-8.48V624h3.73Zm0-15.9h4.51a2.208,2.208,0,0,1,.96.229,2.775,2.775,0,0,1,.84.648,3.436,3.436,0,0,1,.58.986,3.55,3.55,0,0,1,.21,1.242,3.71,3.71,0,0,1-.19,1.215,3.076,3.076,0,0,1-.51.985,2.466,2.466,0,0,1-.77.662,1.99,1.99,0,0,1-.96.243h-4.67V608.1Zm20.98,15.525a6.359,6.359,0,0,0,2.3-1.89l0.08,0.783a2.006,2.006,0,0,0,.68,1.215,2.429,2.429,0,0,0,1.58.459,8.263,8.263,0,0,0,1.6-.189v-3.078a0.869,0.869,0,0,1-.66-0.27,1.238,1.238,0,0,1-.21-0.81v-4.4a5.5,5.5,0,0,0-1.68-4.334,6.916,6.916,0,0,0-4.74-1.5,10.453,10.453,0,0,0-5.89,1.809l1.11,2.3a10.121,10.121,0,0,1,2.21-1.188,6.274,6.274,0,0,1,2.22-.4,3.31,3.31,0,0,1,2.36.756,2.842,2.842,0,0,1,.8,2.16v0.81a7.653,7.653,0,0,0-1.61-.459,10.451,10.451,0,0,0-1.85-.162,8.323,8.323,0,0,0-2.43.337,6.1,6.1,0,0,0-1.9.932,4.2,4.2,0,0,0-1.25,1.444,4.008,4.008,0,0,0-.44,1.85,4.339,4.339,0,0,0,.36,1.782,4.4,4.4,0,0,0,1.02,1.417,4.587,4.587,0,0,0,1.53.945,5.423,5.423,0,0,0,1.92.338A6.582,6.582,0,0,0,1381.26,623.623Zm-3.59-2.606a1.924,1.924,0,0,1-.7-1.525,1.891,1.891,0,0,1,.89-1.607,3.853,3.853,0,0,1,2.29-.634,7.534,7.534,0,0,1,1.46.148,9.31,9.31,0,0,1,1.41.392v1.62a1.3,1.3,0,0,1-.6,1.026,3.172,3.172,0,0,1-1.28.864,4.717,4.717,0,0,1-1.74.324A2.546,2.546,0,0,1,1377.67,621.017Zm12.85-.283a3.431,3.431,0,0,0,.93,2.578,3.622,3.622,0,0,0,2.63.9,9.361,9.361,0,0,0,1.76-.189,7.017,7.017,0,0,0,1.7-.54l-0.49-2.754a4.7,4.7,0,0,1-.74.27,2.7,2.7,0,0,1-.71.108,1.353,1.353,0,0,1-1.08-.432,1.747,1.747,0,0,1-.38-1.215V604.291h-3.62v16.443Zm19.78,2.5a6.386,6.386,0,0,0,2.5-2.659l-3.11-.864a2.766,2.766,0,0,1-1.31,1.39,4.18,4.18,0,0,1-2.04.527,3.8,3.8,0,0,1-1.35-.243,3.641,3.641,0,0,1-1.16-.7,3.779,3.779,0,0,1-.84-1.107,4.239,4.239,0,0,1-.4-1.485h10.93a2.519,2.519,0,0,0,.07-0.54c0.01-.216.02-0.441,0.02-0.675a7.8,7.8,0,0,0-.5-2.754,6.866,6.866,0,0,0-1.46-2.322,7.207,7.207,0,0,0-2.32-1.593,7.687,7.687,0,0,0-3.1-.594,7.8,7.8,0,0,0-3.11.594,7.111,7.111,0,0,0-2.37,1.606,7.033,7.033,0,0,0-1.48,2.349,7.924,7.924,0,0,0-.51,2.849,7.467,7.467,0,0,0,.52,2.781,6.968,6.968,0,0,0,1.5,2.322,7.061,7.061,0,0,0,2.35,1.579,7.847,7.847,0,0,0,3.08.581A7.766,7.766,0,0,0,1410.3,623.231Zm-7.76-7.492a3.728,3.728,0,0,1,.36-1.431,3.666,3.666,0,0,1,.8-1.107,3.437,3.437,0,0,1,1.12-.716,3.776,3.776,0,0,1,3.88.7,3.737,3.737,0,0,1,1.18,2.552h-7.34Zm26.78,4.86-1.7-4.59,2.46-6.129h-2.92l-1.51,4.347-1.49-4.347h-2.91l2.48,6.129L1422,620.6l-4.21-10.746h-3.4L1420.27,624h2.97l2.41-6.21,2.43,6.21h2.97l5.91-14.148h-3.43Zm16.25,3.024a6.277,6.277,0,0,0,2.3-1.89l0.08,0.783a1.97,1.97,0,0,0,.69,1.215,2.41,2.41,0,0,0,1.58.459,8.087,8.087,0,0,0,1.59-.189v-3.078a0.869,0.869,0,0,1-.66-0.27,1.242,1.242,0,0,1-.2-0.81v-4.4a5.51,5.51,0,0,0-1.69-4.334,6.916,6.916,0,0,0-4.74-1.5,10.453,10.453,0,0,0-5.89,1.809l1.11,2.3a10.41,10.41,0,0,1,2.22-1.188,6.22,6.22,0,0,1,2.21-.4,3.31,3.31,0,0,1,2.36.756,2.842,2.842,0,0,1,.8,2.16v0.81a7.483,7.483,0,0,0-1.61-.459,10.451,10.451,0,0,0-1.85-.162,8.323,8.323,0,0,0-2.43.337,6.1,6.1,0,0,0-1.9.932,4.169,4.169,0,0,0-1.24,1.444,3.9,3.9,0,0,0-.45,1.85,4.187,4.187,0,0,0,.37,1.782,4.374,4.374,0,0,0,1.01,1.417,4.534,4.534,0,0,0,1.54.945,5.329,5.329,0,0,0,1.91.338A6.582,6.582,0,0,0,1445.57,623.623Zm-3.59-2.606a1.948,1.948,0,0,1,.19-3.132,3.886,3.886,0,0,1,2.3-.634,7.512,7.512,0,0,1,1.45.148,8.7,8.7,0,0,1,1.41.392v1.62a1.3,1.3,0,0,1-.6,1.026,3.1,3.1,0,0,1-1.28.864,4.717,4.717,0,0,1-1.74.324A2.564,2.564,0,0,1,1441.98,621.017Zm12.83,8.87a5.429,5.429,0,0,0,.93.229,5.9,5.9,0,0,0,.88.068,4.91,4.91,0,0,0,3.07-.945,5.059,5.059,0,0,0,1.76-2.43l5.94-16.956h-3.4l-3.4,11.016-3.84-11.016h-3.72L1458.61,624q-0.27.891-.51,1.485a4.655,4.655,0,0,1-.48.931,1.52,1.52,0,0,1-.54.473,1.593,1.593,0,0,1-.65.135,4.876,4.876,0,0,1-.73-0.068,6.828,6.828,0,0,1-.89-0.2v3.132Zm32.05-6.183a6.47,6.47,0,0,0,2.1-1.553,7.029,7.029,0,0,0,1.39-2.308,7.886,7.886,0,0,0,.5-2.862,9.189,9.189,0,0,0-.44-2.835,7.234,7.234,0,0,0-1.27-2.349,6.282,6.282,0,0,0-1.96-1.593,5.33,5.33,0,0,0-2.51-.594,5.625,5.625,0,0,0-2.88.715,5.41,5.41,0,0,0-1.98,2.012v-8.046h-3.62V624h3.16v-2.457a5.328,5.328,0,0,0,2,2,5.683,5.683,0,0,0,2.89.729A6.14,6.14,0,0,0,1486.86,623.7Zm-4.67-2.687a3.865,3.865,0,0,1-1-.486,4.135,4.135,0,0,1-.83-0.742,3.194,3.194,0,0,1-.55-0.972v-3.375a5.252,5.252,0,0,1,1.47-1.958,3.3,3.3,0,0,1,2.17-.8,3.19,3.19,0,0,1,1.49.351,3.781,3.781,0,0,1,1.17.945,4.162,4.162,0,0,1,.77,1.377,5.017,5.017,0,0,1,.27,1.647,4.552,4.552,0,0,1-.28,1.62,3.98,3.98,0,0,1-.8,1.323,3.786,3.786,0,0,1-2.83,1.242A3.389,3.389,0,0,1,1482.19,621.017Zm21.3,2.66a6.8,6.8,0,0,0,2.32-1.607,7.175,7.175,0,0,0,1.46-2.335,7.911,7.911,0,0,0,0-5.589,6.938,6.938,0,0,0-3.8-3.942,7.638,7.638,0,0,0-3.09-.594,7.755,7.755,0,0,0-3.1.594,6.914,6.914,0,0,0-3.81,3.942,7.911,7.911,0,0,0,0,5.589,6.922,6.922,0,0,0,3.81,3.942A8.412,8.412,0,0,0,1503.49,623.677Zm-6.52-8.424a4.226,4.226,0,0,1,.78-1.35,3.653,3.653,0,0,1,1.18-.891,3.266,3.266,0,0,1,1.45-.324,3.429,3.429,0,0,1,1.46.31,3.593,3.593,0,0,1,1.18.878,4.226,4.226,0,0,1,.78,1.35,4.936,4.936,0,0,1,.28,1.7,5.02,5.02,0,0,1-.28,1.728,4.226,4.226,0,0,1-.78,1.35,3.59,3.59,0,0,1-1.18.877,3.43,3.43,0,0,1-1.46.311,3.385,3.385,0,0,1-1.45-.311,3.489,3.489,0,0,1-1.18-.877,4.26,4.26,0,0,1-.78-1.337A5.172,5.172,0,0,1,1496.97,615.253Zm13.75,5.481a3.4,3.4,0,0,0,.94,2.578,3.606,3.606,0,0,0,2.63.9,9.348,9.348,0,0,0,1.75-.189,6.878,6.878,0,0,0,1.7-.54l-0.48-2.754a5.093,5.093,0,0,1-.74.27,2.771,2.771,0,0,1-.72.108,1.353,1.353,0,0,1-1.08-.432,1.8,1.8,0,0,1-.38-1.215V604.291h-3.62v16.443Zm17.78,2.848a5.126,5.126,0,0,0,2.12-2.038l0.08,0.891a1.793,1.793,0,0,0,.71,1.269,2.488,2.488,0,0,0,1.59.486,8.353,8.353,0,0,0,1.54-.189v-3.078a0.845,0.845,0,0,1-.65-0.27,1.312,1.312,0,0,1-.19-0.81V604.291h-3.62v8.046a5.475,5.475,0,0,0-1.96-1.971,5.325,5.325,0,0,0-2.82-.756,5.683,5.683,0,0,0-2.53.567,6,6,0,0,0-2,1.566,7.374,7.374,0,0,0-1.31,2.322,8.328,8.328,0,0,0-.47,2.862,8.21,8.21,0,0,0,.49,2.875,7.361,7.361,0,0,0,1.4,2.336,6.3,6.3,0,0,0,2.13,1.566,6.437,6.437,0,0,0,2.7.567A6.01,6.01,0,0,0,1528.5,623.582Zm-3.43-2.713a3.705,3.705,0,0,1-1.22-.891,4,4,0,0,1-.81-1.323,4.426,4.426,0,0,1-.3-1.647,4.935,4.935,0,0,1,.27-1.62,4.689,4.689,0,0,1,.75-1.391,3.627,3.627,0,0,1,1.18-.958,3.26,3.26,0,0,1,1.5-.351,2.979,2.979,0,0,1,1.09.216,4.544,4.544,0,0,1,1.05.58,4.286,4.286,0,0,1,.89.864,3.653,3.653,0,0,1,.61,1.094v3.375a3.069,3.069,0,0,1-.55.945,4.447,4.447,0,0,1-.82.756,3.775,3.775,0,0,1-1,.5,3.4,3.4,0,0,1-1.06.176A3.817,3.817,0,0,1,1525.07,620.869Zm-555.4-60.15H974.5v-0.281l-8.016-14.485a10.273,10.273,0,0,0,4.793-3.539A9.188,9.188,0,0,0,973,536.86q0-5.016-3.106-7.641t-8.871-2.625h-11.3v34.125h4.524V546.914h8.015ZM954.25,530.274h6.89a7.989,7.989,0,0,1,5.45,1.714,6.189,6.189,0,0,1,1.886,4.86,5.875,5.875,0,0,1-1.98,4.649,7.8,7.8,0,0,1-5.332,1.738H954.25V530.274Zm24.666,17.836a13.731,13.731,0,0,0,3.2,9.492,10.671,10.671,0,0,0,8.356,3.586,11.229,11.229,0,0,0,6.059-1.641,10.729,10.729,0,0,0,4.05-4.582,15.042,15.042,0,0,0,1.42-6.644v-0.305q0-5.953-3.2-9.539a10.694,10.694,0,0,0-8.379-3.586,11.1,11.1,0,0,0-5.965,1.617,10.927,10.927,0,0,0-4.078,4.594,14.972,14.972,0,0,0-1.465,6.7v0.305Zm6.328-7.1a6.228,6.228,0,0,1,5.18-2.555,6.3,6.3,0,0,1,5.262,2.59,10.834,10.834,0,0,1,1.98,6.762q0,4.663-1.945,7.254a6.631,6.631,0,0,1-10.488.035,10.846,10.846,0,0,1-1.957-6.773Q983.276,543.563,985.244,541.008Zm45.106,6.938q0-6.071-2.64-9.563a8.583,8.583,0,0,0-7.25-3.492,8.783,8.783,0,0,0-7.24,3.258v-13.43h-4.34v36h3.98l0.21-2.93a8.844,8.844,0,0,0,7.43,3.4,8.55,8.55,0,0,0,7.18-3.528q2.67-3.527,2.67-9.339v-0.375Zm-6.07,7.148a5.645,5.645,0,0,1-4.85,2.414,6.528,6.528,0,0,1-6.21-3.984V542.555a6.36,6.36,0,0,1,6.16-3.984,5.659,5.659,0,0,1,4.92,2.414,11.719,11.719,0,0,1,1.71,6.843Q1026.01,552.68,1024.28,555.094Zm11.82-6.984a13.741,13.741,0,0,0,3.2,9.492,10.672,10.672,0,0,0,8.36,3.586,11.181,11.181,0,0,0,6.05-1.641,10.79,10.79,0,0,0,4.06-4.582,15.181,15.181,0,0,0,1.42-6.644v-0.305q0-5.953-3.2-9.539a10.71,10.71,0,0,0-8.38-3.586,11.125,11.125,0,0,0-5.97,1.617,10.883,10.883,0,0,0-4.07,4.594,14.934,14.934,0,0,0-1.47,6.7v0.305Zm6.33-7.1a6.225,6.225,0,0,1,5.18-2.555,6.291,6.291,0,0,1,5.26,2.59,10.834,10.834,0,0,1,1.98,6.762,11.912,11.912,0,0,1-1.94,7.254,6.633,6.633,0,0,1-10.49.035,10.816,10.816,0,0,1-1.96-6.773Q1040.46,543.563,1042.43,541.008Zm25.18-11.789v6.141h-4.62v3.351h4.62v15.727a7.521,7.521,0,0,0,1.48,4.992,5.384,5.384,0,0,0,4.38,1.758,12.667,12.667,0,0,0,3.33-.466v-3.5a10.559,10.559,0,0,1-2.06.281,2.665,2.665,0,0,1-2.16-.762,3.535,3.535,0,0,1-.63-2.289V538.711h4.73V535.36h-4.73v-6.141h-4.34Zm13.96,18.891q0,5.905,3.2,9.492a10.651,10.651,0,0,0,8.35,3.586,11.24,11.24,0,0,0,6.06-1.641,10.7,10.7,0,0,0,4.05-4.582,15.042,15.042,0,0,0,1.42-6.644v-0.305q0-5.953-3.2-9.539a10.682,10.682,0,0,0-8.38-3.586,11.091,11.091,0,0,0-5.96,1.617,10.971,10.971,0,0,0-4.08,4.594,15.065,15.065,0,0,0-1.46,6.7v0.305Zm6.32-7.1a6.238,6.238,0,0,1,5.18-2.555,6.309,6.309,0,0,1,5.27,2.59,10.834,10.834,0,0,1,1.98,6.762q0,4.663-1.95,7.254a6.633,6.633,0,0,1-10.49.035,10.876,10.876,0,0,1-1.95-6.773Q1085.93,543.563,1087.89,541.008Zm49.22-5.789a4.436,4.436,0,0,0-1.92-.328,6.755,6.755,0,0,0-6.05,3.4l-0.07-2.929h-4.22v25.359h4.34v-18a5.705,5.705,0,0,1,5.79-3.633,13.083,13.083,0,0,1,2.13.164v-4.031Zm25.07,21.07-2.65-2.062a9.857,9.857,0,0,1-2.79,2.484,7.546,7.546,0,0,1-3.89.938,6.867,6.867,0,0,1-5.33-2.309,9.048,9.048,0,0,1-2.2-6.059h17.18v-1.8q0-6.071-2.74-9.328a9.5,9.5,0,0,0-7.69-3.258,10.148,10.148,0,0,0-5.61,1.676,11.211,11.211,0,0,0-4.03,4.64,15.233,15.233,0,0,0-1.44,6.739v0.8a12.594,12.594,0,0,0,3.23,9.059,11.1,11.1,0,0,0,8.39,3.387q6.375,0,9.57-4.9h0Zm-5.79-16.019a8.3,8.3,0,0,1,1.78,5.121v0.328h-12.71a9.326,9.326,0,0,1,2.21-5.355,5.773,5.773,0,0,1,4.4-1.911A5.461,5.461,0,0,1,1156.39,540.27Zm14.29,17.332a8.673,8.673,0,0,0,7.21,3.586,8.9,8.9,0,0,0,7.1-3v2.179a6.808,6.808,0,0,1-1.77,5.016,6.636,6.636,0,0,1-4.93,1.781,8.475,8.475,0,0,1-6.82-3.445l-2.25,2.6a9.234,9.234,0,0,0,4.01,3.21,12.992,12.992,0,0,0,5.36,1.172,10.761,10.761,0,0,0,7.84-2.836,10.3,10.3,0,0,0,2.92-7.757V535.36h-3.96l-0.21,2.812a9.456,9.456,0,0,0-14.51.223q-2.745,3.5-2.74,9.433Q1167.93,554.016,1170.68,557.6Zm3.39-16.571a5.757,5.757,0,0,1,4.94-2.46,6.429,6.429,0,0,1,5.98,3.632v11.578a6.349,6.349,0,0,1-6.02,3.727,5.7,5.7,0,0,1-4.92-2.449,11.312,11.312,0,0,1-1.76-6.738Q1172.29,543.493,1174.07,541.031Zm24.02,19.219a2.59,2.59,0,0,0,2,.727,2.661,2.661,0,0,0,2.03-.727,2.518,2.518,0,0,0,.69-1.8,2.664,2.664,0,0,0-.69-1.875,2.613,2.613,0,0,0-2.03-.75,2.544,2.544,0,0,0-2,.75,2.742,2.742,0,0,0-.67,1.875A2.59,2.59,0,0,0,1198.09,560.25Zm75.11,0.469h7.55v-0.328l-7.38-13.945a10.3,10.3,0,0,0,4.58-3.715,10.482,10.482,0,0,0,1.51-5.825,9.294,9.294,0,0,0-3.28-7.617q-3.285-2.694-9.33-2.695h-12.68v34.125h7.03V548.227h5.61Zm-12-28.43h5.65a5.7,5.7,0,0,1,4.21,1.383,5.173,5.173,0,0,1,1.37,3.8,4.812,4.812,0,0,1-1.45,3.715,5.816,5.816,0,0,1-4.1,1.347h-5.68V532.289Zm24.51,15.821q0,6.046,3.27,9.562a12.618,12.618,0,0,0,17.49-.012,13.262,13.262,0,0,0,3.26-9.363l-0.05-1.734a12.579,12.579,0,0,0-3.62-8.532,11.549,11.549,0,0,0-8.38-3.14,12.222,12.222,0,0,0-6.34,1.617,10.642,10.642,0,0,0-4.18,4.57,15.023,15.023,0,0,0-1.45,6.727v0.305Zm8.13-5.822a4.427,4.427,0,0,1,3.84-1.936,4.493,4.493,0,0,1,3.89,1.948,9.324,9.324,0,0,1,1.39,5.493q0,4.155-1.39,6.044a4.879,4.879,0,0,1-7.73-.023,9.45,9.45,0,0,1-1.36-5.528Q1292.48,544.226,1293.84,542.288Zm45.31,5.611q0-6.187-2.63-9.6a8.7,8.7,0,0,0-7.28-3.41,7.7,7.7,0,0,0-6.16,2.742V524.719h-6.78v36h6.1l0.3-2.7a7.925,7.925,0,0,0,6.59,3.164,8.6,8.6,0,0,0,7.26-3.41q2.61-3.411,2.6-9.5V547.9Zm-7.26,4.584a4.189,4.189,0,0,1-4.31,3.244,4.512,4.512,0,0,1-4.5-2.68V543.008a4.457,4.457,0,0,1,4.45-2.656,4.109,4.109,0,0,1,3.63,1.775q1.215,1.774,1.22,5.63a16.738,16.738,0,0,1-.49,4.726h0Zm12.78-4.373q0,6.046,3.27,9.562a12.63,12.63,0,0,0,17.5-.012,13.257,13.257,0,0,0,3.25-9.363l-0.04-1.734a12.624,12.624,0,0,0-3.62-8.532,11.566,11.566,0,0,0-8.38-3.14,12.2,12.2,0,0,0-6.34,1.617,10.664,10.664,0,0,0-4.19,4.57,15.023,15.023,0,0,0-1.45,6.727v0.305Zm8.13-5.822a4.432,4.432,0,0,1,3.85-1.936,4.493,4.493,0,0,1,3.89,1.948,9.4,9.4,0,0,1,1.38,5.493q0,4.155-1.38,6.044a4.889,4.889,0,0,1-7.74-.023,9.526,9.526,0,0,1-1.36-5.528C1351.44,545.579,1351.9,543.58,1352.8,542.288Zm23.8-13.163v6.235h-3.7v4.968h3.7v13.664q0.15,7.2,7.27,7.2a13.983,13.983,0,0,0,4.1-.61v-5.132a10.824,10.824,0,0,1-1.99.164,2.718,2.718,0,0,1-2.07-.61,3.02,3.02,0,0,1-.53-2.015V540.328h4.33V535.36h-4.33v-6.235h-6.78Zm15.53,18.985q0,6.046,3.27,9.562a12.618,12.618,0,0,0,17.49-.012,13.262,13.262,0,0,0,3.26-9.363l-0.05-1.734a12.579,12.579,0,0,0-3.62-8.532,11.533,11.533,0,0,0-8.38-3.14,12.222,12.222,0,0,0-6.34,1.617,10.642,10.642,0,0,0-4.18,4.57,15.023,15.023,0,0,0-1.45,6.727v0.305Zm8.13-5.822a4.427,4.427,0,0,1,3.84-1.936,4.493,4.493,0,0,1,3.89,1.948,9.324,9.324,0,0,1,1.39,5.493q0,4.155-1.39,6.044a4.879,4.879,0,0,1-7.73-.023,9.45,9.45,0,0,1-1.36-5.528Q1398.9,544.226,1400.26,542.288Zm59.67,5.611q0-6.187-2.64-9.6a8.69,8.69,0,0,0-7.28-3.41,7.712,7.712,0,0,0-6.16,2.742V524.719h-6.77v36h6.09l0.3-2.7a7.925,7.925,0,0,0,6.59,3.164,8.633,8.633,0,0,0,7.27-3.41q2.6-3.411,2.6-9.5V547.9Zm-7.27,4.584a4.181,4.181,0,0,1-4.31,3.244,4.53,4.53,0,0,1-4.5-2.68V543.008a4.465,4.465,0,0,1,4.45-2.656,4.109,4.109,0,0,1,3.63,1.775c0.82,1.183,1.22,3.06,1.22,5.63a16.738,16.738,0,0,1-.49,4.726h0Zm12.78-4.373q0,6.046,3.27,9.562a12.63,12.63,0,0,0,17.5-.012,13.262,13.262,0,0,0,3.26-9.363l-0.05-1.734a12.624,12.624,0,0,0-3.62-8.532,11.566,11.566,0,0,0-8.38-3.14,12.2,12.2,0,0,0-6.34,1.617,10.642,10.642,0,0,0-4.18,4.57,15.026,15.026,0,0,0-1.46,6.727v0.305Zm8.14-5.822a4.4,4.4,0,0,1,3.84-1.936,4.493,4.493,0,0,1,3.89,1.948,9.4,9.4,0,0,1,1.38,5.493q0,4.155-1.38,6.044a4.879,4.879,0,0,1-7.73-.023,9.45,9.45,0,0,1-1.36-5.528Q1472.22,544.226,1473.58,542.288Zm29.61-17.569h-6.8v36h6.8v-36Zm9.63,32.941a8.6,8.6,0,0,0,7.18,3.528,7.978,7.978,0,0,0,6.52-3.164l0.33,2.7h6.11v-36h-6.79v12.937a7.774,7.774,0,0,0-6.12-2.765,8.631,8.631,0,0,0-7.28,3.515q-2.655,3.516-2.66,9.446Q1510.11,554.132,1512.82,557.66Zm8.96-17.308a4.48,4.48,0,0,1,4.39,2.66v10.054a4.535,4.535,0,0,1-4.43,2.661,4.034,4.034,0,0,1-3.61-1.907,10.046,10.046,0,0,1-1.25-5.486q0-7.981,4.9-7.982h0Z" transform="translate(-948.938 -524.719)"/>
</svg>
